<mxfile host="Electron" agent="Mozilla/5.0 (Windows NT 10.0; Win64; x64) AppleWebKit/537.36 (KHTML, like Gecko) draw.io/24.7.17 Chrome/128.0.6613.36 Electron/32.0.1 Safari/537.36" version="24.7.17" pages="8">
  <diagram id="S_eeqjQVhEUBGZh5OQpP" name="START">
    <mxGraphModel dx="2836" dy="1560" grid="1" gridSize="10" guides="1" tooltips="1" connect="1" arrows="1" fold="1" page="1" pageScale="1" pageWidth="850" pageHeight="1100" math="0" shadow="0">
      <root>
        <mxCell id="0" />
        <mxCell id="1" parent="0" />
        <mxCell id="vAcwwldiIX50TO4L0e-K-1" style="edgeStyle=orthogonalEdgeStyle;rounded=0;orthogonalLoop=1;jettySize=auto;html=1;exitX=0.5;exitY=1;exitDx=0;exitDy=0;exitPerimeter=0;entryX=0.5;entryY=0;entryDx=0;entryDy=0;" parent="1" source="kXSc95PkOBAA7xl_mvKd-1" target="U0N8JdJp5fVZQ48i8LtU-1" edge="1">
          <mxGeometry relative="1" as="geometry" />
        </mxCell>
        <mxCell id="kXSc95PkOBAA7xl_mvKd-1" value="&lt;font style=&quot;font-size: 24px;&quot;&gt;Start&lt;/font&gt;" style="strokeWidth=2;html=1;shape=mxgraph.flowchart.start_1;whiteSpace=wrap;" parent="1" vertex="1">
          <mxGeometry x="233.5" y="190" width="160" height="90" as="geometry" />
        </mxCell>
        <mxCell id="eGZsC5xMXP7g0uXH925A-7" style="edgeStyle=orthogonalEdgeStyle;rounded=0;orthogonalLoop=1;jettySize=auto;html=1;exitX=0.463;exitY=0.991;exitDx=0;exitDy=0;entryX=0.5;entryY=0;entryDx=0;entryDy=0;exitPerimeter=0;" parent="1" source="U0N8JdJp5fVZQ48i8LtU-1" target="eGZsC5xMXP7g0uXH925A-4" edge="1">
          <mxGeometry relative="1" as="geometry" />
        </mxCell>
        <mxCell id="U0N8JdJp5fVZQ48i8LtU-1" value="&lt;font face=&quot;Times New Roman&quot; style=&quot;font-size: 18px;&quot;&gt;output&lt;/font&gt;&lt;div&gt;&lt;p dir=&quot;ltr&quot; class=&quot;selectable-text copyable-text x15bjb6t x1n2onr6&quot;&gt;&lt;span style=&quot;white-space-collapse: preserve;&quot; class=&quot;selectable-text copyable-text false&quot;&gt;&lt;font size=&quot;3&quot; face=&quot;uEEuzTw2esKfjolq162l&quot;&gt;&quot;===== PILIHAN MENU =====\n&quot;&lt;/font&gt;&lt;/span&gt;&lt;/p&gt;&lt;p dir=&quot;ltr&quot; class=&quot;selectable-text copyable-text x15bjb6t x1n2onr6&quot;&gt;&lt;span style=&quot;white-space-collapse: preserve;&quot; class=&quot;selectable-text copyable-text false&quot;&gt;&lt;font size=&quot;3&quot; face=&quot;uEEuzTw2esKfjolq162l&quot;&gt;            &amp;lt;&amp;lt; &quot;1. REGISTRASI\n&quot;&lt;/font&gt;&lt;/span&gt;&lt;/p&gt;&lt;p dir=&quot;ltr&quot; class=&quot;selectable-text copyable-text x15bjb6t x1n2onr6&quot;&gt;&lt;span style=&quot;white-space-collapse: preserve;&quot; class=&quot;selectable-text copyable-text false&quot;&gt;&lt;font size=&quot;3&quot; face=&quot;uEEuzTw2esKfjolq162l&quot;&gt;            &amp;lt;&amp;lt; &quot;2. LOGIN\n&quot;&lt;/font&gt;&lt;/span&gt;&lt;/p&gt;&lt;p dir=&quot;ltr&quot; class=&quot;selectable-text copyable-text x15bjb6t x1n2onr6&quot;&gt;&lt;span style=&quot;white-space-collapse: preserve;&quot; class=&quot;selectable-text copyable-text false&quot;&gt;&lt;font size=&quot;3&quot; face=&quot;uEEuzTw2esKfjolq162l&quot;&gt;            &amp;lt;&amp;lt; &quot;3. KELUAR\n&quot;;&lt;/font&gt;&lt;/span&gt;&lt;/p&gt;&lt;p dir=&quot;ltr&quot; class=&quot;selectable-text copyable-text x15bjb6t x1n2onr6&quot;&gt;&lt;span style=&quot;white-space-collapse: preserve;&quot; class=&quot;selectable-text copyable-text false&quot;&gt;&lt;font size=&quot;3&quot; face=&quot;uEEuzTw2esKfjolq162l&quot;&gt;         &amp;lt;&amp;lt; &quot;Masukkan pilihan:&lt;/font&gt;&lt;/span&gt;&lt;/p&gt;&lt;/div&gt;" style="shape=parallelogram;html=1;strokeWidth=2;perimeter=parallelogramPerimeter;whiteSpace=wrap;rounded=1;arcSize=12;size=0.23;align=center;" parent="1" vertex="1">
          <mxGeometry x="120" y="358.5" width="387" height="188" as="geometry" />
        </mxCell>
        <mxCell id="U0N8JdJp5fVZQ48i8LtU-2" value="" style="endArrow=classic;html=1;rounded=0;" parent="1" edge="1">
          <mxGeometry width="50" height="50" relative="1" as="geometry">
            <mxPoint x="354" y="503" as="sourcePoint" />
            <mxPoint x="516" y="503" as="targetPoint" />
          </mxGeometry>
        </mxCell>
        <mxCell id="eGZsC5xMXP7g0uXH925A-10" style="edgeStyle=orthogonalEdgeStyle;rounded=0;orthogonalLoop=1;jettySize=auto;html=1;exitX=0.5;exitY=1;exitDx=0;exitDy=0;entryX=0.5;entryY=0;entryDx=0;entryDy=0;" parent="1" source="eGZsC5xMXP7g0uXH925A-4" target="ylRLhpwwB9inFQS3z3Xw-1" edge="1">
          <mxGeometry relative="1" as="geometry">
            <mxPoint x="987.0049999999997" y="450" as="targetPoint" />
          </mxGeometry>
        </mxCell>
        <mxCell id="eGZsC5xMXP7g0uXH925A-4" value="&lt;font style=&quot;font-size: 36px;&quot;&gt;Input&amp;nbsp;&lt;/font&gt;&lt;div&gt;&lt;font style=&quot;font-size: 36px;&quot;&gt;pilihan&lt;/font&gt;&lt;/div&gt;" style="shape=parallelogram;html=1;strokeWidth=2;perimeter=parallelogramPerimeter;whiteSpace=wrap;rounded=1;arcSize=12;size=0.23;" parent="1" vertex="1">
          <mxGeometry x="156.5" y="600" width="287" height="140" as="geometry" />
        </mxCell>
        <mxCell id="eGZsC5xMXP7g0uXH925A-5" value="" style="endArrow=classic;html=1;rounded=0;" parent="1" edge="1">
          <mxGeometry width="50" height="50" relative="1" as="geometry">
            <mxPoint x="140" y="630" as="sourcePoint" />
            <mxPoint x="302" y="630" as="targetPoint" />
          </mxGeometry>
        </mxCell>
        <mxCell id="eGZsC5xMXP7g0uXH925A-12" style="edgeStyle=orthogonalEdgeStyle;rounded=0;orthogonalLoop=1;jettySize=auto;html=1;exitX=0.5;exitY=1;exitDx=0;exitDy=0;entryX=0.5;entryY=0;entryDx=0;entryDy=0;" parent="1" source="ylRLhpwwB9inFQS3z3Xw-1" target="xe-PgyKSs9qya2i3_vWZ-1" edge="1">
          <mxGeometry relative="1" as="geometry">
            <mxPoint x="469.9949999999999" y="990.5" as="sourcePoint" />
            <mxPoint x="536" y="991.5" as="targetPoint" />
          </mxGeometry>
        </mxCell>
        <mxCell id="oNfiK4DyPY4c7tZGKxfW-2" style="edgeStyle=orthogonalEdgeStyle;rounded=0;orthogonalLoop=1;jettySize=auto;html=1;exitX=1;exitY=0.5;exitDx=0;exitDy=0;entryX=0;entryY=0.5;entryDx=0;entryDy=0;" parent="1" source="ylRLhpwwB9inFQS3z3Xw-1" target="oNfiK4DyPY4c7tZGKxfW-1" edge="1">
          <mxGeometry relative="1" as="geometry" />
        </mxCell>
        <mxCell id="d_J7iniEXSTK4A_8MA91-9" value="YA" style="edgeLabel;html=1;align=center;verticalAlign=middle;resizable=0;points=[];" parent="oNfiK4DyPY4c7tZGKxfW-2" vertex="1" connectable="0">
          <mxGeometry x="-0.2469" y="-1" relative="1" as="geometry">
            <mxPoint x="1" as="offset" />
          </mxGeometry>
        </mxCell>
        <mxCell id="ylRLhpwwB9inFQS3z3Xw-1" value="&lt;font style=&quot;font-size: 24px;&quot;&gt;PILIHAN =1&lt;/font&gt;" style="rhombus;whiteSpace=wrap;html=1;" parent="1" vertex="1">
          <mxGeometry x="203.5" y="830" width="190" height="183" as="geometry" />
        </mxCell>
        <mxCell id="csK7JKdNPUk5LN-QbPyr-1" style="edgeStyle=orthogonalEdgeStyle;rounded=0;orthogonalLoop=1;jettySize=auto;html=1;exitX=1;exitY=0.5;exitDx=0;exitDy=0;entryX=1;entryY=1;entryDx=0;entryDy=0;" parent="1" source="oNfiK4DyPY4c7tZGKxfW-1" target="U0N8JdJp5fVZQ48i8LtU-1" edge="1">
          <mxGeometry relative="1" as="geometry">
            <Array as="points">
              <mxPoint x="630" y="922" />
              <mxPoint x="630" y="511" />
            </Array>
          </mxGeometry>
        </mxCell>
        <mxCell id="oNfiK4DyPY4c7tZGKxfW-1" value="&lt;font style=&quot;font-size: 24px;&quot;&gt;REGISTRASI&lt;/font&gt;" style="verticalLabelPosition=bottom;verticalAlign=top;html=1;shape=process;whiteSpace=wrap;rounded=1;size=0.14;arcSize=6;" parent="1" vertex="1">
          <mxGeometry x="500" y="871.5" width="110" height="100" as="geometry" />
        </mxCell>
        <mxCell id="xe-PgyKSs9qya2i3_vWZ-3" style="edgeStyle=orthogonalEdgeStyle;rounded=0;orthogonalLoop=1;jettySize=auto;html=1;exitX=1;exitY=0.5;exitDx=0;exitDy=0;entryX=0;entryY=0.5;entryDx=0;entryDy=0;" parent="1" source="xe-PgyKSs9qya2i3_vWZ-1" target="xe-PgyKSs9qya2i3_vWZ-2" edge="1">
          <mxGeometry relative="1" as="geometry" />
        </mxCell>
        <mxCell id="d_J7iniEXSTK4A_8MA91-10" value="YA" style="edgeLabel;html=1;align=center;verticalAlign=middle;resizable=0;points=[];" parent="xe-PgyKSs9qya2i3_vWZ-3" vertex="1" connectable="0">
          <mxGeometry x="0.0957" y="-3" relative="1" as="geometry">
            <mxPoint x="-1" as="offset" />
          </mxGeometry>
        </mxCell>
        <mxCell id="xe-PgyKSs9qya2i3_vWZ-1" value="&lt;font style=&quot;font-size: 24px;&quot;&gt;PILIHAN =2&lt;/font&gt;" style="rhombus;whiteSpace=wrap;html=1;" parent="1" vertex="1">
          <mxGeometry x="203.5" y="1090" width="190" height="183" as="geometry" />
        </mxCell>
        <mxCell id="d_J7iniEXSTK4A_8MA91-4" style="edgeStyle=orthogonalEdgeStyle;rounded=0;orthogonalLoop=1;jettySize=auto;html=1;exitX=1;exitY=0.5;exitDx=0;exitDy=0;entryX=0;entryY=0.5;entryDx=0;entryDy=0;" parent="1" source="xe-PgyKSs9qya2i3_vWZ-2" target="d_J7iniEXSTK4A_8MA91-3" edge="1">
          <mxGeometry relative="1" as="geometry" />
        </mxCell>
        <mxCell id="xe-PgyKSs9qya2i3_vWZ-2" value="&lt;font style=&quot;font-size: 24px;&quot;&gt;LOGIN&lt;/font&gt;" style="verticalLabelPosition=bottom;verticalAlign=top;html=1;shape=process;whiteSpace=wrap;rounded=1;size=0.14;arcSize=6;" parent="1" vertex="1">
          <mxGeometry x="500" y="1131.5" width="110" height="100" as="geometry" />
        </mxCell>
        <mxCell id="L2KuTdCWfVRMFpdWzozT-2" style="edgeStyle=orthogonalEdgeStyle;rounded=0;orthogonalLoop=1;jettySize=auto;html=1;exitX=0.5;exitY=1;exitDx=0;exitDy=0;exitPerimeter=0;entryX=0.5;entryY=0;entryDx=0;entryDy=0;" parent="1" source="L2KuTdCWfVRMFpdWzozT-3" target="L2KuTdCWfVRMFpdWzozT-5" edge="1">
          <mxGeometry relative="1" as="geometry" />
        </mxCell>
        <mxCell id="d_J7iniEXSTK4A_8MA91-11" value="YA" style="edgeLabel;html=1;align=center;verticalAlign=middle;resizable=0;points=[];" parent="L2KuTdCWfVRMFpdWzozT-2" vertex="1" connectable="0">
          <mxGeometry x="-0.1051" y="1" relative="1" as="geometry">
            <mxPoint as="offset" />
          </mxGeometry>
        </mxCell>
        <mxCell id="L2KuTdCWfVRMFpdWzozT-3" value="&lt;font style=&quot;font-size: 24px;&quot;&gt;pilihan=3&lt;/font&gt;" style="strokeWidth=2;html=1;shape=mxgraph.flowchart.decision;whiteSpace=wrap;" parent="1" vertex="1">
          <mxGeometry x="213.5" y="1370" width="170" height="175" as="geometry" />
        </mxCell>
        <mxCell id="L2KuTdCWfVRMFpdWzozT-5" value="&lt;div&gt;&lt;font style=&quot;font-size: 24px;&quot;&gt;Output&lt;/font&gt;&lt;/div&gt;&lt;div&gt;&lt;font style=&quot;font-size: 24px;&quot;&gt;&quot;Terimakasih telah menggunakan&amp;nbsp;&lt;/font&gt;&lt;/div&gt;&lt;div&gt;&lt;font style=&quot;font-size: 24px;&quot;&gt;program ini&quot;&lt;/font&gt;&lt;/div&gt;" style="shape=parallelogram;html=1;strokeWidth=2;perimeter=parallelogramPerimeter;whiteSpace=wrap;rounded=1;arcSize=12;size=0.23;" parent="1" vertex="1">
          <mxGeometry x="150" y="1630" width="300" height="120" as="geometry" />
        </mxCell>
        <mxCell id="L2KuTdCWfVRMFpdWzozT-6" value="" style="endArrow=classic;html=1;rounded=0;" parent="1" edge="1">
          <mxGeometry width="50" height="50" relative="1" as="geometry">
            <mxPoint x="344.5" y="1740" as="sourcePoint" />
            <mxPoint x="443.5" y="1740" as="targetPoint" />
          </mxGeometry>
        </mxCell>
        <mxCell id="L2KuTdCWfVRMFpdWzozT-7" style="edgeStyle=orthogonalEdgeStyle;rounded=0;orthogonalLoop=1;jettySize=auto;html=1;exitX=0.5;exitY=1;exitDx=0;exitDy=0;entryX=0.5;entryY=0;entryDx=0;entryDy=0;entryPerimeter=0;" parent="1" source="xe-PgyKSs9qya2i3_vWZ-1" target="L2KuTdCWfVRMFpdWzozT-3" edge="1">
          <mxGeometry relative="1" as="geometry" />
        </mxCell>
        <mxCell id="d_J7iniEXSTK4A_8MA91-3" value="&lt;font style=&quot;font-size: 24px;&quot;&gt;MENUKOLEKSI&lt;/font&gt;" style="verticalLabelPosition=bottom;verticalAlign=top;html=1;shape=process;whiteSpace=wrap;rounded=1;size=0.14;arcSize=6;" parent="1" vertex="1">
          <mxGeometry x="700" y="1131.5" width="110" height="100" as="geometry" />
        </mxCell>
        <mxCell id="d_J7iniEXSTK4A_8MA91-7" style="edgeStyle=orthogonalEdgeStyle;rounded=0;orthogonalLoop=1;jettySize=auto;html=1;exitX=0.5;exitY=0;exitDx=0;exitDy=0;exitPerimeter=0;entryX=1;entryY=0.5;entryDx=0;entryDy=0;" parent="1" source="d_J7iniEXSTK4A_8MA91-5" edge="1">
          <mxGeometry relative="1" as="geometry">
            <mxPoint x="1125" y="1166.0000000000005" as="sourcePoint" />
            <mxPoint x="462.49500000000035" y="450.5" as="targetPoint" />
            <Array as="points">
              <mxPoint x="980" y="1098" />
              <mxPoint x="980" y="450" />
            </Array>
          </mxGeometry>
        </mxCell>
        <mxCell id="d_J7iniEXSTK4A_8MA91-8" value="YA" style="edgeLabel;html=1;align=center;verticalAlign=middle;resizable=0;points=[];" parent="d_J7iniEXSTK4A_8MA91-7" vertex="1" connectable="0">
          <mxGeometry x="-0.5514" y="4" relative="1" as="geometry">
            <mxPoint as="offset" />
          </mxGeometry>
        </mxCell>
        <mxCell id="d_J7iniEXSTK4A_8MA91-5" value="&lt;font style=&quot;font-size: 24px;&quot;&gt;KELUAR&lt;/font&gt;" style="strokeWidth=2;html=1;shape=mxgraph.flowchart.decision;whiteSpace=wrap;" parent="1" vertex="1">
          <mxGeometry x="900" y="1098" width="170" height="175" as="geometry" />
        </mxCell>
        <mxCell id="d_J7iniEXSTK4A_8MA91-6" style="edgeStyle=orthogonalEdgeStyle;rounded=0;orthogonalLoop=1;jettySize=auto;html=1;exitX=1;exitY=0.5;exitDx=0;exitDy=0;entryX=0.092;entryY=0.475;entryDx=0;entryDy=0;entryPerimeter=0;" parent="1" source="d_J7iniEXSTK4A_8MA91-3" target="d_J7iniEXSTK4A_8MA91-5" edge="1">
          <mxGeometry relative="1" as="geometry" />
        </mxCell>
        <mxCell id="d_J7iniEXSTK4A_8MA91-12" value="&lt;font style=&quot;font-size: 24px;&quot;&gt;END&lt;/font&gt;" style="strokeWidth=2;html=1;shape=mxgraph.flowchart.start_1;whiteSpace=wrap;" parent="1" vertex="1">
          <mxGeometry x="248.5" y="1840" width="100" height="60" as="geometry" />
        </mxCell>
        <mxCell id="d_J7iniEXSTK4A_8MA91-13" style="edgeStyle=orthogonalEdgeStyle;rounded=0;orthogonalLoop=1;jettySize=auto;html=1;exitX=0.5;exitY=1;exitDx=0;exitDy=0;entryX=0.5;entryY=0;entryDx=0;entryDy=0;entryPerimeter=0;" parent="1" source="L2KuTdCWfVRMFpdWzozT-5" target="d_J7iniEXSTK4A_8MA91-12" edge="1">
          <mxGeometry relative="1" as="geometry" />
        </mxCell>
      </root>
    </mxGraphModel>
  </diagram>
  <diagram id="AptxOJQ6cAX9dEZWyuxg" name="REGISTRASI">
    <mxGraphModel dx="5954" dy="1708" grid="1" gridSize="10" guides="1" tooltips="1" connect="1" arrows="1" fold="1" page="1" pageScale="1" pageWidth="850" pageHeight="1100" math="0" shadow="0">
      <root>
        <mxCell id="0" />
        <mxCell id="1" parent="0" />
        <mxCell id="sPs_B0SzUMHoR-HpAtFJ-5" style="edgeStyle=orthogonalEdgeStyle;rounded=0;orthogonalLoop=1;jettySize=auto;html=1;exitX=0.5;exitY=1;exitDx=0;exitDy=0;entryX=0.5;entryY=0;entryDx=0;entryDy=0;" edge="1" parent="1" source="EglkgSlWikKpP5SOnafz-5" target="EglkgSlWikKpP5SOnafz-8">
          <mxGeometry relative="1" as="geometry" />
        </mxCell>
        <mxCell id="EglkgSlWikKpP5SOnafz-5" value="&lt;font style=&quot;font-size: 24px;&quot;&gt;Input&amp;nbsp;&lt;/font&gt;&lt;div&gt;&lt;font style=&quot;font-size: 24px;&quot;&gt;namapengguna&lt;/font&gt;&lt;/div&gt;" style="shape=parallelogram;html=1;strokeWidth=2;perimeter=parallelogramPerimeter;whiteSpace=wrap;rounded=1;arcSize=12;size=0.23;" parent="1" vertex="1">
          <mxGeometry x="-195" y="1686.25" width="240" height="120" as="geometry" />
        </mxCell>
        <mxCell id="sPs_B0SzUMHoR-HpAtFJ-6" style="edgeStyle=orthogonalEdgeStyle;rounded=0;orthogonalLoop=1;jettySize=auto;html=1;exitX=1;exitY=0.5;exitDx=0;exitDy=0;entryX=0;entryY=0.5;entryDx=0;entryDy=0;" edge="1" parent="1" source="EglkgSlWikKpP5SOnafz-8" target="EglkgSlWikKpP5SOnafz-11">
          <mxGeometry relative="1" as="geometry" />
        </mxCell>
        <mxCell id="sPs_B0SzUMHoR-HpAtFJ-7" value="YA" style="edgeLabel;html=1;align=center;verticalAlign=middle;resizable=0;points=[];" vertex="1" connectable="0" parent="sPs_B0SzUMHoR-HpAtFJ-6">
          <mxGeometry x="0.0106" y="2" relative="1" as="geometry">
            <mxPoint as="offset" />
          </mxGeometry>
        </mxCell>
        <mxCell id="sPs_B0SzUMHoR-HpAtFJ-9" style="edgeStyle=orthogonalEdgeStyle;rounded=0;orthogonalLoop=1;jettySize=auto;html=1;exitX=0.5;exitY=1;exitDx=0;exitDy=0;entryX=0.5;entryY=0;entryDx=0;entryDy=0;" edge="1" parent="1" source="EglkgSlWikKpP5SOnafz-8" target="EglkgSlWikKpP5SOnafz-16">
          <mxGeometry relative="1" as="geometry" />
        </mxCell>
        <mxCell id="sPs_B0SzUMHoR-HpAtFJ-13" value="TIDAK" style="edgeLabel;html=1;align=center;verticalAlign=middle;resizable=0;points=[];" vertex="1" connectable="0" parent="sPs_B0SzUMHoR-HpAtFJ-9">
          <mxGeometry x="-0.1905" y="6" relative="1" as="geometry">
            <mxPoint as="offset" />
          </mxGeometry>
        </mxCell>
        <mxCell id="EglkgSlWikKpP5SOnafz-8" value="&lt;div style=&quot;color: rgb(204, 204, 204); background-color: rgb(31, 31, 31); font-family: Consolas, &amp;quot;Courier New&amp;quot;, monospace; line-height: 19px; white-space: pre;&quot;&gt;&lt;font style=&quot;font-size: 24px;&quot;&gt;&lt;span style=&quot;color: rgb(156, 220, 254);&quot;&gt;pengguna&lt;/span&gt;[&lt;span style=&quot;color: rgb(156, 220, 254);&quot;&gt;i&lt;/span&gt;].&lt;span style=&quot;color: rgb(156, 220, 254);&quot;&gt;usr&lt;/span&gt; &lt;/font&gt;&lt;/div&gt;&lt;div style=&quot;color: rgb(204, 204, 204); background-color: rgb(31, 31, 31); font-family: Consolas, &amp;quot;Courier New&amp;quot;, monospace; line-height: 19px; white-space: pre;&quot;&gt;&lt;font style=&quot;&quot;&gt;&lt;span style=&quot;font-size: 18px; color: rgb(220, 220, 170);&quot;&gt;==&lt;/span&gt;&lt;span style=&quot;font-size: 18px;&quot;&gt; &lt;/span&gt;&lt;span style=&quot;color: rgb(156, 220, 254);&quot;&gt;&lt;font style=&quot;font-size: 24px;&quot;&gt;namaPengguna&lt;/font&gt;&lt;/span&gt;&lt;/font&gt;&lt;/div&gt;" style="rhombus;whiteSpace=wrap;html=1;" parent="1" vertex="1">
          <mxGeometry x="-185" y="1880" width="220" height="210" as="geometry" />
        </mxCell>
        <mxCell id="EglkgSlWikKpP5SOnafz-9" value="" style="endArrow=classic;html=1;rounded=0;" parent="1" edge="1">
          <mxGeometry width="50" height="50" relative="1" as="geometry">
            <mxPoint x="-57.5" y="1704.75" as="sourcePoint" />
            <mxPoint x="104.5" y="1704.75" as="targetPoint" />
          </mxGeometry>
        </mxCell>
        <mxCell id="sPs_B0SzUMHoR-HpAtFJ-8" style="edgeStyle=orthogonalEdgeStyle;rounded=0;orthogonalLoop=1;jettySize=auto;html=1;exitX=1;exitY=0.75;exitDx=0;exitDy=0;entryX=1;entryY=0.5;entryDx=0;entryDy=0;" edge="1" parent="1" source="EglkgSlWikKpP5SOnafz-11" target="EglkgSlWikKpP5SOnafz-5">
          <mxGeometry relative="1" as="geometry">
            <Array as="points">
              <mxPoint x="560" y="2009" />
              <mxPoint x="560" y="1746" />
            </Array>
          </mxGeometry>
        </mxCell>
        <mxCell id="EglkgSlWikKpP5SOnafz-11" value="&lt;span style=&quot;font-size: 24px;&quot;&gt;Output&lt;/span&gt;&lt;div&gt;&lt;span style=&quot;font-size: 24px;&quot;&gt;Nama pengguna sudah&amp;nbsp;&lt;/span&gt;&lt;/div&gt;&lt;div&gt;&lt;span style=&quot;font-size: 24px;&quot;&gt;digunakan, silahkan&lt;/span&gt;&lt;/div&gt;&lt;div&gt;&lt;span style=&quot;font-size: 24px;&quot;&gt;coba lagi&lt;/span&gt;&lt;/div&gt;" style="shape=parallelogram;html=1;strokeWidth=2;perimeter=parallelogramPerimeter;whiteSpace=wrap;rounded=1;arcSize=12;size=0.23;" parent="1" vertex="1">
          <mxGeometry x="110" y="1915" width="400" height="140" as="geometry" />
        </mxCell>
        <mxCell id="EglkgSlWikKpP5SOnafz-12" value="" style="endArrow=classic;html=1;rounded=0;" parent="1" edge="1">
          <mxGeometry width="50" height="50" relative="1" as="geometry">
            <mxPoint x="304" y="2045" as="sourcePoint" />
            <mxPoint x="466" y="2045" as="targetPoint" />
          </mxGeometry>
        </mxCell>
        <mxCell id="sPs_B0SzUMHoR-HpAtFJ-10" style="edgeStyle=orthogonalEdgeStyle;rounded=0;orthogonalLoop=1;jettySize=auto;html=1;exitX=0.5;exitY=1;exitDx=0;exitDy=0;" edge="1" parent="1" source="EglkgSlWikKpP5SOnafz-16" target="EglkgSlWikKpP5SOnafz-26">
          <mxGeometry relative="1" as="geometry" />
        </mxCell>
        <mxCell id="EglkgSlWikKpP5SOnafz-16" value="&lt;font style=&quot;font-size: 36px;&quot;&gt;Input&amp;nbsp;&lt;/font&gt;&lt;div&gt;&lt;font style=&quot;font-size: 36px;&quot;&gt;kata sandi&lt;/font&gt;&lt;/div&gt;" style="shape=parallelogram;html=1;strokeWidth=2;perimeter=parallelogramPerimeter;whiteSpace=wrap;rounded=1;arcSize=12;size=0.23;" parent="1" vertex="1">
          <mxGeometry x="-219" y="2206.25" width="287" height="140" as="geometry" />
        </mxCell>
        <mxCell id="EglkgSlWikKpP5SOnafz-18" value="" style="endArrow=classic;html=1;rounded=0;" parent="1" edge="1">
          <mxGeometry width="50" height="50" relative="1" as="geometry">
            <mxPoint x="-230" y="2234.75" as="sourcePoint" />
            <mxPoint x="-68" y="2234.75" as="targetPoint" />
          </mxGeometry>
        </mxCell>
        <mxCell id="sPs_B0SzUMHoR-HpAtFJ-2" style="edgeStyle=orthogonalEdgeStyle;rounded=0;orthogonalLoop=1;jettySize=auto;html=1;exitX=1;exitY=0.5;exitDx=0;exitDy=0;entryX=0;entryY=0.5;entryDx=0;entryDy=0;" edge="1" parent="1" source="EglkgSlWikKpP5SOnafz-21" target="EglkgSlWikKpP5SOnafz-22">
          <mxGeometry relative="1" as="geometry" />
        </mxCell>
        <mxCell id="sPs_B0SzUMHoR-HpAtFJ-3" value="YA" style="edgeLabel;html=1;align=center;verticalAlign=middle;resizable=0;points=[];" vertex="1" connectable="0" parent="sPs_B0SzUMHoR-HpAtFJ-2">
          <mxGeometry x="-0.0712" relative="1" as="geometry">
            <mxPoint x="1" as="offset" />
          </mxGeometry>
        </mxCell>
        <mxCell id="sPs_B0SzUMHoR-HpAtFJ-4" style="edgeStyle=orthogonalEdgeStyle;rounded=0;orthogonalLoop=1;jettySize=auto;html=1;exitX=0.5;exitY=1;exitDx=0;exitDy=0;entryX=0.5;entryY=0;entryDx=0;entryDy=0;" edge="1" parent="1" source="EglkgSlWikKpP5SOnafz-21" target="EglkgSlWikKpP5SOnafz-5">
          <mxGeometry relative="1" as="geometry" />
        </mxCell>
        <mxCell id="sPs_B0SzUMHoR-HpAtFJ-14" value="TIDAK" style="edgeLabel;html=1;align=center;verticalAlign=middle;resizable=0;points=[];" vertex="1" connectable="0" parent="sPs_B0SzUMHoR-HpAtFJ-4">
          <mxGeometry x="-0.2106" y="-1" relative="1" as="geometry">
            <mxPoint as="offset" />
          </mxGeometry>
        </mxCell>
        <mxCell id="EglkgSlWikKpP5SOnafz-21" value="&lt;font style=&quot;font-size: 18px;&quot;&gt;JumlahPengguna=&lt;/font&gt;&lt;div&gt;&lt;font style=&quot;font-size: 18px;&quot;&gt;Max&lt;/font&gt;&lt;/div&gt;" style="rhombus;whiteSpace=wrap;html=1;" parent="1" vertex="1">
          <mxGeometry x="-170" y="1420" width="190" height="183" as="geometry" />
        </mxCell>
        <mxCell id="EglkgSlWikKpP5SOnafz-22" value="&lt;span style=&quot;font-size: 24px;&quot;&gt;output&lt;/span&gt;&lt;div&gt;&lt;span style=&quot;font-size: 24px;&quot;&gt;&quot;batas registrasi&lt;/span&gt;&lt;/div&gt;&lt;div&gt;&lt;span style=&quot;font-size: 24px;&quot;&gt;telah penuh&quot;&lt;/span&gt;&lt;/div&gt;" style="shape=parallelogram;html=1;strokeWidth=2;perimeter=parallelogramPerimeter;whiteSpace=wrap;rounded=1;arcSize=12;size=0.23;" parent="1" vertex="1">
          <mxGeometry x="130" y="1441.5" width="287" height="140" as="geometry" />
        </mxCell>
        <mxCell id="EglkgSlWikKpP5SOnafz-23" value="" style="endArrow=classic;html=1;rounded=0;" parent="1" edge="1">
          <mxGeometry width="50" height="50" relative="1" as="geometry">
            <mxPoint x="280" y="1571.5" as="sourcePoint" />
            <mxPoint x="392" y="1571.5" as="targetPoint" />
          </mxGeometry>
        </mxCell>
        <mxCell id="sPs_B0SzUMHoR-HpAtFJ-16" style="edgeStyle=orthogonalEdgeStyle;rounded=0;orthogonalLoop=1;jettySize=auto;html=1;exitX=0.5;exitY=1;exitDx=0;exitDy=0;" edge="1" parent="1" source="EglkgSlWikKpP5SOnafz-26" target="sPs_B0SzUMHoR-HpAtFJ-15">
          <mxGeometry relative="1" as="geometry" />
        </mxCell>
        <mxCell id="EglkgSlWikKpP5SOnafz-26" value="&lt;p dir=&quot;ltr&quot; class=&quot;selectable-text copyable-text x15bjb6t x1n2onr6&quot;&gt;&lt;span style=&quot;white-space-collapse: preserve;&quot; class=&quot;selectable-text copyable-text false&quot;&gt;&lt;font style=&quot;font-size: 18px;&quot;&gt;    pengguna[jumlahPengguna].usr = namaPengguna;&lt;/font&gt;&lt;/span&gt;&lt;/p&gt;&lt;p dir=&quot;ltr&quot; class=&quot;selectable-text copyable-text x15bjb6t x1n2onr6&quot;&gt;&lt;span style=&quot;white-space-collapse: preserve;&quot; class=&quot;selectable-text copyable-text false&quot;&gt;&lt;font size=&quot;3&quot;&gt;                        pengguna[jumlahPengguna].pw = kataSandi;&lt;/font&gt;&lt;/span&gt;&lt;/p&gt;&lt;p dir=&quot;ltr&quot; class=&quot;selectable-text copyable-text x15bjb6t x1n2onr6&quot;&gt;&lt;span style=&quot;white-space-collapse: preserve;&quot; class=&quot;selectable-text copyable-text false&quot;&gt;&lt;font size=&quot;3&quot;&gt;                        jumlahPengguna++;&lt;/font&gt;&lt;/span&gt;&lt;/p&gt;" style="rounded=1;whiteSpace=wrap;html=1;absoluteArcSize=1;arcSize=14;strokeWidth=2;" parent="1" vertex="1">
          <mxGeometry x="-220.99" y="2460" width="290" height="150" as="geometry" />
        </mxCell>
        <mxCell id="sPs_B0SzUMHoR-HpAtFJ-1" style="edgeStyle=orthogonalEdgeStyle;rounded=0;orthogonalLoop=1;jettySize=auto;html=1;exitX=0.5;exitY=1;exitDx=0;exitDy=0;exitPerimeter=0;entryX=0.5;entryY=0;entryDx=0;entryDy=0;" edge="1" parent="1" source="EglkgSlWikKpP5SOnafz-28" target="EglkgSlWikKpP5SOnafz-21">
          <mxGeometry relative="1" as="geometry" />
        </mxCell>
        <mxCell id="EglkgSlWikKpP5SOnafz-28" value="&lt;font style=&quot;font-size: 24px;&quot;&gt;REGISTRASI()&lt;/font&gt;" style="strokeWidth=2;html=1;shape=mxgraph.flowchart.start_2;whiteSpace=wrap;" parent="1" vertex="1">
          <mxGeometry x="-165" y="1230" width="185" height="100" as="geometry" />
        </mxCell>
        <mxCell id="sPs_B0SzUMHoR-HpAtFJ-11" value="&lt;font style=&quot;font-size: 24px;&quot;&gt;jumlah pengguna&lt;/font&gt;" style="strokeWidth=2;html=1;shape=mxgraph.flowchart.database;whiteSpace=wrap;" vertex="1" parent="1">
          <mxGeometry x="170" y="2455" width="120" height="160" as="geometry" />
        </mxCell>
        <mxCell id="sPs_B0SzUMHoR-HpAtFJ-12" style="edgeStyle=orthogonalEdgeStyle;rounded=0;orthogonalLoop=1;jettySize=auto;html=1;exitX=1;exitY=0.5;exitDx=0;exitDy=0;entryX=0;entryY=0.5;entryDx=0;entryDy=0;entryPerimeter=0;" edge="1" parent="1" source="EglkgSlWikKpP5SOnafz-26" target="sPs_B0SzUMHoR-HpAtFJ-11">
          <mxGeometry relative="1" as="geometry" />
        </mxCell>
        <mxCell id="sPs_B0SzUMHoR-HpAtFJ-15" value="&lt;span style=&quot;font-size: 24px;&quot;&gt;END&lt;/span&gt;" style="strokeWidth=2;html=1;shape=mxgraph.flowchart.start_2;whiteSpace=wrap;" vertex="1" parent="1">
          <mxGeometry x="-155" y="2690" width="160" height="100" as="geometry" />
        </mxCell>
      </root>
    </mxGraphModel>
  </diagram>
  <diagram id="C5RBs43oDa-KdzZeNtuy" name="Login">
    <mxGraphModel dx="6498" dy="2924" grid="1" gridSize="10" guides="1" tooltips="1" connect="1" arrows="1" fold="1" page="1" pageScale="1" pageWidth="827" pageHeight="1169" math="0" shadow="0">
      <root>
        <mxCell id="WIyWlLk6GJQsqaUBKTNV-0" />
        <mxCell id="WIyWlLk6GJQsqaUBKTNV-1" parent="WIyWlLk6GJQsqaUBKTNV-0" />
        <mxCell id="VuP4XENw9uIxVqtlQMHD-1" style="edgeStyle=orthogonalEdgeStyle;rounded=0;orthogonalLoop=1;jettySize=auto;html=1;exitX=0.5;exitY=1;exitDx=0;exitDy=0;entryX=0.5;entryY=0;entryDx=0;entryDy=0;" edge="1" parent="WIyWlLk6GJQsqaUBKTNV-1" source="ABVKABCqyXAfzfn8uoG_-32" target="ABVKABCqyXAfzfn8uoG_-35">
          <mxGeometry relative="1" as="geometry" />
        </mxCell>
        <mxCell id="ABVKABCqyXAfzfn8uoG_-32" value="&lt;font style=&quot;font-size: 36px;&quot;&gt;while percobaan&amp;lt;3&lt;/font&gt;" style="rounded=1;whiteSpace=wrap;html=1;absoluteArcSize=1;arcSize=14;strokeWidth=2;" parent="WIyWlLk6GJQsqaUBKTNV-1" vertex="1">
          <mxGeometry x="-3210" y="-490" width="270" height="130" as="geometry" />
        </mxCell>
        <mxCell id="ABVKABCqyXAfzfn8uoG_-35" value="&lt;font style=&quot;font-size: 24px;&quot;&gt;&lt;font style=&quot;&quot;&gt;Input&amp;nbsp;&lt;/font&gt;&lt;span style=&quot;background-color: initial;&quot;&gt;Username &amp;amp; Password&lt;/span&gt;&lt;/font&gt;" style="shape=parallelogram;html=1;strokeWidth=2;perimeter=parallelogramPerimeter;whiteSpace=wrap;rounded=1;arcSize=12;size=0.23;" parent="WIyWlLk6GJQsqaUBKTNV-1" vertex="1">
          <mxGeometry x="-3218.5" y="-269.5" width="287" height="140" as="geometry" />
        </mxCell>
        <mxCell id="ABVKABCqyXAfzfn8uoG_-36" value="" style="endArrow=classic;html=1;rounded=0;" parent="WIyWlLk6GJQsqaUBKTNV-1" edge="1">
          <mxGeometry width="50" height="50" relative="1" as="geometry">
            <mxPoint x="-3250" y="-250" as="sourcePoint" />
            <mxPoint x="-3088" y="-250" as="targetPoint" />
          </mxGeometry>
        </mxCell>
        <mxCell id="ABVKABCqyXAfzfn8uoG_-37" style="edgeStyle=orthogonalEdgeStyle;rounded=0;orthogonalLoop=1;jettySize=auto;html=1;exitX=1;exitY=0.5;exitDx=0;exitDy=0;exitPerimeter=0;entryX=0;entryY=0.5;entryDx=0;entryDy=0;" parent="WIyWlLk6GJQsqaUBKTNV-1" source="ABVKABCqyXAfzfn8uoG_-41" target="ABVKABCqyXAfzfn8uoG_-43" edge="1">
          <mxGeometry relative="1" as="geometry" />
        </mxCell>
        <mxCell id="VuP4XENw9uIxVqtlQMHD-8" value="TIDAK" style="edgeLabel;html=1;align=center;verticalAlign=middle;resizable=0;points=[];" vertex="1" connectable="0" parent="ABVKABCqyXAfzfn8uoG_-37">
          <mxGeometry x="-0.2976" y="-2" relative="1" as="geometry">
            <mxPoint as="offset" />
          </mxGeometry>
        </mxCell>
        <mxCell id="zPLVQjLd71J1myCV8pdF-0" value="YA" style="edgeStyle=orthogonalEdgeStyle;rounded=0;orthogonalLoop=1;jettySize=auto;html=1;exitX=0.5;exitY=1;exitDx=0;exitDy=0;exitPerimeter=0;entryX=0.5;entryY=0;entryDx=0;entryDy=0;" parent="WIyWlLk6GJQsqaUBKTNV-1" source="ABVKABCqyXAfzfn8uoG_-41" target="ABVKABCqyXAfzfn8uoG_-45" edge="1">
          <mxGeometry relative="1" as="geometry" />
        </mxCell>
        <mxCell id="zPLVQjLd71J1myCV8pdF-1" value="ya" style="edgeLabel;html=1;align=center;verticalAlign=middle;resizable=0;points=[];" parent="zPLVQjLd71J1myCV8pdF-0" vertex="1" connectable="0">
          <mxGeometry x="-0.0025" y="-4" relative="1" as="geometry">
            <mxPoint as="offset" />
          </mxGeometry>
        </mxCell>
        <mxCell id="ABVKABCqyXAfzfn8uoG_-41" value="&lt;font style=&quot;font-size: 24px;&quot;&gt;username=&lt;/font&gt;&lt;div&gt;&lt;font style=&quot;font-size: 24px;&quot;&gt;pengguna.usr&lt;/font&gt;&lt;/div&gt;&lt;div&gt;&lt;span style=&quot;font-size: 24px;&quot;&gt;&amp;amp;&amp;amp;&lt;br&gt;&lt;/span&gt;&lt;div&gt;&lt;font style=&quot;font-size: 24px;&quot;&gt;Password=&lt;/font&gt;&lt;/div&gt;&lt;div&gt;&lt;font style=&quot;font-size: 24px;&quot;&gt;pengguna.pw&lt;/font&gt;&lt;/div&gt;&lt;/div&gt;" style="strokeWidth=2;html=1;shape=mxgraph.flowchart.decision;whiteSpace=wrap;" parent="WIyWlLk6GJQsqaUBKTNV-1" vertex="1">
          <mxGeometry x="-3215.5" y="-40" width="281" height="255.5" as="geometry" />
        </mxCell>
        <mxCell id="VuP4XENw9uIxVqtlQMHD-4" style="edgeStyle=orthogonalEdgeStyle;rounded=0;orthogonalLoop=1;jettySize=auto;html=1;exitX=1;exitY=0.5;exitDx=0;exitDy=0;entryX=0;entryY=0.5;entryDx=0;entryDy=0;" edge="1" parent="WIyWlLk6GJQsqaUBKTNV-1" source="ABVKABCqyXAfzfn8uoG_-43" target="ZMfiYNVIuhQV8O737ivc-0">
          <mxGeometry relative="1" as="geometry" />
        </mxCell>
        <mxCell id="ABVKABCqyXAfzfn8uoG_-43" value="&lt;div&gt;&lt;font style=&quot;font-size: 24px;&quot;&gt;&lt;font style=&quot;&quot;&gt;Output&lt;/font&gt;&lt;/font&gt;&lt;/div&gt;&lt;div&gt;&lt;font style=&quot;font-size: 24px;&quot;&gt;&lt;font style=&quot;background-color: initial;&quot;&gt;&quot;&lt;font style=&quot;&quot;&gt;Gagal login,&lt;/font&gt;&lt;/font&gt;&lt;span style=&quot;background-color: initial;&quot;&gt;&amp;nbsp;username atau password salah,&amp;nbsp;&lt;/span&gt;&lt;span style=&quot;background-color: initial;&quot;&gt;percobaan ke-&quot;&lt;/span&gt;&lt;span style=&quot;background-color: initial;&quot;&gt;percobaan&quot; dari 3&quot;&lt;/span&gt;&lt;/font&gt;&lt;/div&gt;" style="shape=parallelogram;html=1;strokeWidth=2;perimeter=parallelogramPerimeter;whiteSpace=wrap;rounded=1;arcSize=12;size=0.23;" parent="WIyWlLk6GJQsqaUBKTNV-1" vertex="1">
          <mxGeometry x="-2780" y="12.25" width="413" height="151" as="geometry" />
        </mxCell>
        <mxCell id="zPLVQjLd71J1myCV8pdF-3" style="edgeStyle=orthogonalEdgeStyle;rounded=0;orthogonalLoop=1;jettySize=auto;html=1;exitX=0.5;exitY=1;exitDx=0;exitDy=0;entryX=0.5;entryY=0;entryDx=0;entryDy=0;" parent="WIyWlLk6GJQsqaUBKTNV-1" source="ABVKABCqyXAfzfn8uoG_-45" target="zPLVQjLd71J1myCV8pdF-2" edge="1">
          <mxGeometry relative="1" as="geometry" />
        </mxCell>
        <mxCell id="ABVKABCqyXAfzfn8uoG_-45" value="&lt;div&gt;&lt;font style=&quot;font-size: 36px;&quot;&gt;&lt;font style=&quot;&quot;&gt;Output&lt;/font&gt;&lt;span style=&quot;background-color: initial;&quot;&gt;&quot;Login Berhasil&quot;&lt;/span&gt;&lt;/font&gt;&lt;/div&gt;" style="shape=parallelogram;html=1;strokeWidth=2;perimeter=parallelogramPerimeter;whiteSpace=wrap;rounded=1;arcSize=12;size=0.23;" parent="WIyWlLk6GJQsqaUBKTNV-1" vertex="1">
          <mxGeometry x="-3220.75" y="310" width="291.5" height="150" as="geometry" />
        </mxCell>
        <mxCell id="ABVKABCqyXAfzfn8uoG_-46" value="" style="endArrow=classic;html=1;rounded=0;" parent="WIyWlLk6GJQsqaUBKTNV-1" edge="1">
          <mxGeometry width="50" height="50" relative="1" as="geometry">
            <mxPoint x="-2529" y="150" as="sourcePoint" />
            <mxPoint x="-2367" y="150" as="targetPoint" />
          </mxGeometry>
        </mxCell>
        <mxCell id="ABVKABCqyXAfzfn8uoG_-47" value="" style="endArrow=classic;html=1;rounded=0;" parent="WIyWlLk6GJQsqaUBKTNV-1" edge="1">
          <mxGeometry width="50" height="50" relative="1" as="geometry">
            <mxPoint x="-3091.25" y="430" as="sourcePoint" />
            <mxPoint x="-2929.25" y="430" as="targetPoint" />
          </mxGeometry>
        </mxCell>
        <mxCell id="ABVKABCqyXAfzfn8uoG_-50" style="edgeStyle=orthogonalEdgeStyle;rounded=0;orthogonalLoop=1;jettySize=auto;html=1;exitX=0;exitY=0.5;exitDx=0;exitDy=0;exitPerimeter=0;entryX=1;entryY=0.5;entryDx=0;entryDy=0;" parent="WIyWlLk6GJQsqaUBKTNV-1" source="ABVKABCqyXAfzfn8uoG_-53" target="ABVKABCqyXAfzfn8uoG_-35" edge="1">
          <mxGeometry relative="1" as="geometry">
            <Array as="points">
              <mxPoint x="-2218" y="-199" />
            </Array>
          </mxGeometry>
        </mxCell>
        <mxCell id="ABVKABCqyXAfzfn8uoG_-51" value="Tidak" style="edgeLabel;html=1;align=center;verticalAlign=middle;resizable=0;points=[];" parent="ABVKABCqyXAfzfn8uoG_-50" vertex="1" connectable="0">
          <mxGeometry x="-0.0435" y="3" relative="1" as="geometry">
            <mxPoint as="offset" />
          </mxGeometry>
        </mxCell>
        <mxCell id="VuP4XENw9uIxVqtlQMHD-5" style="edgeStyle=orthogonalEdgeStyle;rounded=0;orthogonalLoop=1;jettySize=auto;html=1;exitX=0.5;exitY=1;exitDx=0;exitDy=0;exitPerimeter=0;entryX=0.5;entryY=0;entryDx=0;entryDy=0;" edge="1" parent="WIyWlLk6GJQsqaUBKTNV-1" source="ABVKABCqyXAfzfn8uoG_-53" target="ZMfiYNVIuhQV8O737ivc-0">
          <mxGeometry relative="1" as="geometry" />
        </mxCell>
        <mxCell id="ABVKABCqyXAfzfn8uoG_-53" value="&lt;font style=&quot;font-size: 24px;&quot;&gt;percobaan =3&lt;/font&gt;" style="strokeWidth=2;html=1;shape=mxgraph.flowchart.decision;whiteSpace=wrap;" parent="WIyWlLk6GJQsqaUBKTNV-1" vertex="1">
          <mxGeometry x="-2179.5" y="-304.5" width="203" height="210" as="geometry" />
        </mxCell>
        <mxCell id="ZMfiYNVIuhQV8O737ivc-0" value="&lt;font style=&quot;font-size: 36px;&quot;&gt;Percobaan++&lt;/font&gt;" style="rounded=1;whiteSpace=wrap;html=1;absoluteArcSize=1;arcSize=14;strokeWidth=2;" parent="WIyWlLk6GJQsqaUBKTNV-1" vertex="1">
          <mxGeometry x="-2210" y="33.25" width="264" height="109" as="geometry" />
        </mxCell>
        <mxCell id="VuP4XENw9uIxVqtlQMHD-0" style="edgeStyle=orthogonalEdgeStyle;rounded=0;orthogonalLoop=1;jettySize=auto;html=1;exitX=0.5;exitY=1;exitDx=0;exitDy=0;exitPerimeter=0;entryX=0.5;entryY=0;entryDx=0;entryDy=0;" edge="1" parent="WIyWlLk6GJQsqaUBKTNV-1" source="GHzExhc0h2uJ6ANrkxDM-0" target="ABVKABCqyXAfzfn8uoG_-32">
          <mxGeometry relative="1" as="geometry" />
        </mxCell>
        <mxCell id="GHzExhc0h2uJ6ANrkxDM-0" value="&lt;font style=&quot;font-size: 36px;&quot;&gt;LOGIN()&lt;/font&gt;" style="strokeWidth=2;html=1;shape=mxgraph.flowchart.start_1;whiteSpace=wrap;" parent="WIyWlLk6GJQsqaUBKTNV-1" vertex="1">
          <mxGeometry x="-3170" y="-690" width="190" height="110" as="geometry" />
        </mxCell>
        <mxCell id="zPLVQjLd71J1myCV8pdF-2" value="&lt;font style=&quot;font-size: 36px;&quot;&gt;menu koleksi&lt;/font&gt;" style="verticalLabelPosition=bottom;verticalAlign=top;html=1;shape=process;whiteSpace=wrap;rounded=1;size=0.14;arcSize=6;" parent="WIyWlLk6GJQsqaUBKTNV-1" vertex="1">
          <mxGeometry x="-3195" y="550" width="240" height="170" as="geometry" />
        </mxCell>
        <mxCell id="uPERPvF7dlq-xADe8j5d-0" value="&lt;font style=&quot;font-size: 36px;&quot;&gt;end&lt;/font&gt;" style="strokeWidth=2;html=1;shape=mxgraph.flowchart.start_1;whiteSpace=wrap;" parent="WIyWlLk6GJQsqaUBKTNV-1" vertex="1">
          <mxGeometry x="-3165" y="850" width="180" height="99.5" as="geometry" />
        </mxCell>
        <mxCell id="VuP4XENw9uIxVqtlQMHD-2" style="edgeStyle=orthogonalEdgeStyle;rounded=0;orthogonalLoop=1;jettySize=auto;html=1;exitX=0.5;exitY=1;exitDx=0;exitDy=0;entryX=0.5;entryY=0;entryDx=0;entryDy=0;entryPerimeter=0;" edge="1" parent="WIyWlLk6GJQsqaUBKTNV-1" source="ABVKABCqyXAfzfn8uoG_-35" target="ABVKABCqyXAfzfn8uoG_-41">
          <mxGeometry relative="1" as="geometry" />
        </mxCell>
        <mxCell id="VuP4XENw9uIxVqtlQMHD-3" style="edgeStyle=orthogonalEdgeStyle;rounded=0;orthogonalLoop=1;jettySize=auto;html=1;exitX=0.5;exitY=1;exitDx=0;exitDy=0;entryX=0.5;entryY=0;entryDx=0;entryDy=0;entryPerimeter=0;" edge="1" parent="WIyWlLk6GJQsqaUBKTNV-1" source="zPLVQjLd71J1myCV8pdF-2" target="uPERPvF7dlq-xADe8j5d-0">
          <mxGeometry relative="1" as="geometry" />
        </mxCell>
        <mxCell id="VuP4XENw9uIxVqtlQMHD-6" style="edgeStyle=orthogonalEdgeStyle;rounded=0;orthogonalLoop=1;jettySize=auto;html=1;exitX=1;exitY=0.5;exitDx=0;exitDy=0;exitPerimeter=0;entryX=1;entryY=0.5;entryDx=0;entryDy=0;entryPerimeter=0;" edge="1" parent="WIyWlLk6GJQsqaUBKTNV-1" source="ABVKABCqyXAfzfn8uoG_-53" target="uPERPvF7dlq-xADe8j5d-0">
          <mxGeometry relative="1" as="geometry">
            <Array as="points">
              <mxPoint x="-1840" y="-199" />
              <mxPoint x="-1840" y="900" />
            </Array>
          </mxGeometry>
        </mxCell>
        <mxCell id="VuP4XENw9uIxVqtlQMHD-7" value="YA" style="edgeLabel;html=1;align=center;verticalAlign=middle;resizable=0;points=[];" vertex="1" connectable="0" parent="VuP4XENw9uIxVqtlQMHD-6">
          <mxGeometry x="-0.455" y="-3" relative="1" as="geometry">
            <mxPoint as="offset" />
          </mxGeometry>
        </mxCell>
      </root>
    </mxGraphModel>
  </diagram>
  <diagram id="aWi3zeFCgEHwb--NhlUO" name="menu koleksi">
    <mxGraphModel dx="2320" dy="176" grid="1" gridSize="10" guides="1" tooltips="1" connect="1" arrows="1" fold="1" page="1" pageScale="1" pageWidth="850" pageHeight="1100" math="0" shadow="0">
      <root>
        <mxCell id="0" />
        <mxCell id="1" parent="0" />
        <mxCell id="LEY4rxzhP1P3rRAMe_Mm-1" style="edgeStyle=orthogonalEdgeStyle;rounded=0;orthogonalLoop=1;jettySize=auto;html=1;exitX=0.5;exitY=1;exitDx=0;exitDy=0;entryX=0.5;entryY=0;entryDx=0;entryDy=0;" parent="1" source="LEY4rxzhP1P3rRAMe_Mm-2" target="LEY4rxzhP1P3rRAMe_Mm-4" edge="1">
          <mxGeometry relative="1" as="geometry" />
        </mxCell>
        <mxCell id="LEY4rxzhP1P3rRAMe_Mm-2" value="&lt;p style=&quot;&quot; dir=&quot;ltr&quot; class=&quot;selectable-text copyable-text x15bjb6t x1n2onr6&quot;&gt;&lt;font style=&quot;font-size: 24px;&quot;&gt;&lt;span style=&quot;white-space-collapse: preserve;&quot; class=&quot;selectable-text copyable-text false&quot;&gt;&lt;font style=&quot;&quot;&gt;Output&lt;/font&gt;&lt;/span&gt;&lt;span style=&quot;background-color: initial; white-space-collapse: preserve;&quot; class=&quot;selectable-text copyable-text false&quot;&gt;&lt;font style=&quot;&quot;&gt;&quot;&lt;/font&gt;&lt;/span&gt;&lt;/font&gt;&lt;/p&gt;&lt;p style=&quot;&quot; dir=&quot;ltr&quot; class=&quot;selectable-text copyable-text x15bjb6t x1n2onr6&quot;&gt;&lt;font style=&quot;font-size: 24px;&quot;&gt;&lt;span style=&quot;background-color: initial; white-space-collapse: preserve;&quot; class=&quot;selectable-text copyable-text false&quot;&gt;&lt;font style=&quot;&quot;&gt;&lt;span style=&quot;white-space: pre;&quot;&gt;&#x9;&lt;/span&gt;&quot;Manajemen Koleksi Barang Antik&quot;&lt;/font&gt;&lt;/span&gt;&lt;/font&gt;&lt;/p&gt;&lt;p style=&quot;&quot; dir=&quot;ltr&quot; class=&quot;selectable-text copyable-text x15bjb6t x1n2onr6&quot;&gt;&lt;font style=&quot;font-size: 24px;&quot;&gt;&lt;span style=&quot;background-color: initial; white-space-collapse: preserve;&quot; class=&quot;selectable-text copyable-text false&quot;&gt;&lt;font style=&quot;&quot;&gt;&quot;1. Tambah Koleksi&quot;&lt;/font&gt;&lt;/span&gt;&lt;/font&gt;&lt;/p&gt;&lt;p style=&quot;&quot; dir=&quot;ltr&quot; class=&quot;selectable-text copyable-text x15bjb6t x1n2onr6&quot;&gt;&lt;font style=&quot;font-size: 24px;&quot;&gt;&lt;span style=&quot;background-color: initial; white-space-collapse: preserve;&quot; class=&quot;selectable-text copyable-text false&quot;&gt;&lt;font style=&quot;&quot;&gt;&quot;2. Lihat Koleksi&quot;&lt;/font&gt;&lt;/span&gt;&lt;/font&gt;&lt;/p&gt;&lt;p style=&quot;&quot; dir=&quot;ltr&quot; class=&quot;selectable-text copyable-text x15bjb6t x1n2onr6&quot;&gt;&lt;font style=&quot;font-size: 24px;&quot;&gt;&lt;span style=&quot;background-color: initial; white-space-collapse: preserve;&quot; class=&quot;selectable-text copyable-text false&quot;&gt;&quot;3. Perbarui Koleksi&quot;&lt;/span&gt;&lt;/font&gt;&lt;/p&gt;&lt;p style=&quot;&quot; dir=&quot;ltr&quot; class=&quot;selectable-text copyable-text x15bjb6t x1n2onr6&quot;&gt;&lt;font style=&quot;font-size: 24px;&quot;&gt;&lt;span style=&quot;background-color: initial; white-space-collapse: preserve;&quot; class=&quot;selectable-text copyable-text false&quot;&gt;&quot;4. Hapus Koleksi&quot;&lt;/span&gt;&lt;/font&gt;&lt;/p&gt;&lt;p style=&quot;&quot; dir=&quot;ltr&quot; class=&quot;selectable-text copyable-text x15bjb6t x1n2onr6&quot;&gt;&lt;font style=&quot;font-size: 24px;&quot;&gt;&lt;span style=&quot;background-color: initial; white-space-collapse: preserve;&quot; class=&quot;selectable-text copyable-text false&quot;&gt;&quot;5. Keluar&quot;&lt;/span&gt;&lt;/font&gt;&lt;/p&gt;" style="shape=parallelogram;html=1;strokeWidth=2;perimeter=parallelogramPerimeter;whiteSpace=wrap;rounded=1;arcSize=12;size=0.23;align=center;" parent="1" vertex="1">
          <mxGeometry x="696" y="1380" width="461" height="280" as="geometry" />
        </mxCell>
        <mxCell id="LEY4rxzhP1P3rRAMe_Mm-3" value="" style="endArrow=classic;html=1;rounded=0;" parent="1" edge="1">
          <mxGeometry width="50" height="50" relative="1" as="geometry">
            <mxPoint x="952.5" y="1605.87" as="sourcePoint" />
            <mxPoint x="1114.5" y="1605.87" as="targetPoint" />
          </mxGeometry>
        </mxCell>
        <mxCell id="LEY4rxzhP1P3rRAMe_Mm-4" value="&lt;font style=&quot;font-size: 36px;&quot;&gt;&lt;font style=&quot;&quot;&gt;Input&lt;/font&gt;&lt;/font&gt;&lt;div&gt;&lt;font style=&quot;font-size: 36px;&quot;&gt;&lt;span style=&quot;background-color: initial;&quot;&gt;pilihan&lt;/span&gt;&lt;/font&gt;&lt;/div&gt;" style="shape=parallelogram;html=1;strokeWidth=2;perimeter=parallelogramPerimeter;whiteSpace=wrap;rounded=1;arcSize=12;size=0.23;" parent="1" vertex="1">
          <mxGeometry x="770" y="1738" width="313" height="135" as="geometry" />
        </mxCell>
        <mxCell id="LEY4rxzhP1P3rRAMe_Mm-5" value="" style="endArrow=classic;html=1;rounded=0;" parent="1" edge="1">
          <mxGeometry width="50" height="50" relative="1" as="geometry">
            <mxPoint x="784" y="1770" as="sourcePoint" />
            <mxPoint x="946" y="1770" as="targetPoint" />
          </mxGeometry>
        </mxCell>
        <mxCell id="3zSDgM7Kw2t_0rP7uqXw-6" style="edgeStyle=orthogonalEdgeStyle;rounded=0;orthogonalLoop=1;jettySize=auto;html=1;exitX=0.5;exitY=1;exitDx=0;exitDy=0;exitPerimeter=0;entryX=0.5;entryY=0;entryDx=0;entryDy=0;entryPerimeter=0;" parent="1" source="3zSDgM7Kw2t_0rP7uqXw-1" target="3zSDgM7Kw2t_0rP7uqXw-2" edge="1">
          <mxGeometry relative="1" as="geometry">
            <mxPoint x="927" y="2150" as="sourcePoint" />
          </mxGeometry>
        </mxCell>
        <mxCell id="yue49Qd1HGorT8xgrXCr-7" value="TIDAK" style="edgeLabel;html=1;align=center;verticalAlign=middle;resizable=0;points=[];" vertex="1" connectable="0" parent="3zSDgM7Kw2t_0rP7uqXw-6">
          <mxGeometry x="0.0042" relative="1" as="geometry">
            <mxPoint as="offset" />
          </mxGeometry>
        </mxCell>
        <mxCell id="3zSDgM7Kw2t_0rP7uqXw-14" style="edgeStyle=orthogonalEdgeStyle;rounded=0;orthogonalLoop=1;jettySize=auto;html=1;exitX=1;exitY=0.5;exitDx=0;exitDy=0;exitPerimeter=0;entryX=0;entryY=0.5;entryDx=0;entryDy=0;" parent="1" source="3zSDgM7Kw2t_0rP7uqXw-1" target="3zSDgM7Kw2t_0rP7uqXw-13" edge="1">
          <mxGeometry relative="1" as="geometry" />
        </mxCell>
        <mxCell id="yue49Qd1HGorT8xgrXCr-6" value="YA" style="edgeLabel;html=1;align=center;verticalAlign=middle;resizable=0;points=[];" vertex="1" connectable="0" parent="3zSDgM7Kw2t_0rP7uqXw-14">
          <mxGeometry x="-0.0507" y="4" relative="1" as="geometry">
            <mxPoint as="offset" />
          </mxGeometry>
        </mxCell>
        <mxCell id="oJVOibyozbH8kU2zN9hW-1" style="edgeStyle=orthogonalEdgeStyle;rounded=0;orthogonalLoop=1;jettySize=auto;html=1;exitX=0;exitY=0.5;exitDx=0;exitDy=0;exitPerimeter=0;entryX=0;entryY=1;entryDx=0;entryDy=0;" edge="1" parent="1" source="3zSDgM7Kw2t_0rP7uqXw-1" target="LEY4rxzhP1P3rRAMe_Mm-2">
          <mxGeometry relative="1" as="geometry" />
        </mxCell>
        <mxCell id="3zSDgM7Kw2t_0rP7uqXw-1" value="&lt;font style=&quot;font-size: 24px;&quot;&gt;PILIHAN 1&lt;/font&gt;" style="strokeWidth=2;html=1;shape=mxgraph.flowchart.decision;whiteSpace=wrap;" parent="1" vertex="1">
          <mxGeometry x="826.5" y="1960" width="200" height="174.5" as="geometry" />
        </mxCell>
        <mxCell id="3zSDgM7Kw2t_0rP7uqXw-15" style="edgeStyle=orthogonalEdgeStyle;rounded=0;orthogonalLoop=1;jettySize=auto;html=1;exitX=1;exitY=0.5;exitDx=0;exitDy=0;exitPerimeter=0;entryX=0;entryY=0.5;entryDx=0;entryDy=0;" parent="1" source="3zSDgM7Kw2t_0rP7uqXw-2" target="3zSDgM7Kw2t_0rP7uqXw-10" edge="1">
          <mxGeometry relative="1" as="geometry" />
        </mxCell>
        <mxCell id="yue49Qd1HGorT8xgrXCr-8" value="YA" style="edgeLabel;html=1;align=center;verticalAlign=middle;resizable=0;points=[];" vertex="1" connectable="0" parent="3zSDgM7Kw2t_0rP7uqXw-15">
          <mxGeometry x="-0.1705" y="4" relative="1" as="geometry">
            <mxPoint as="offset" />
          </mxGeometry>
        </mxCell>
        <mxCell id="oJVOibyozbH8kU2zN9hW-2" style="edgeStyle=orthogonalEdgeStyle;rounded=0;orthogonalLoop=1;jettySize=auto;html=1;exitX=0;exitY=0.5;exitDx=0;exitDy=0;exitPerimeter=0;entryX=0;entryY=0.75;entryDx=0;entryDy=0;" edge="1" parent="1" source="3zSDgM7Kw2t_0rP7uqXw-2" target="LEY4rxzhP1P3rRAMe_Mm-2">
          <mxGeometry relative="1" as="geometry">
            <Array as="points">
              <mxPoint x="650" y="2307" />
              <mxPoint x="650" y="1581" />
            </Array>
          </mxGeometry>
        </mxCell>
        <mxCell id="3zSDgM7Kw2t_0rP7uqXw-2" value="&lt;font style=&quot;font-size: 24px;&quot;&gt;PILIHAN 2&lt;/font&gt;" style="strokeWidth=2;html=1;shape=mxgraph.flowchart.decision;whiteSpace=wrap;" parent="1" vertex="1">
          <mxGeometry x="826.5" y="2220" width="200" height="174.5" as="geometry" />
        </mxCell>
        <mxCell id="3zSDgM7Kw2t_0rP7uqXw-8" style="edgeStyle=orthogonalEdgeStyle;rounded=0;orthogonalLoop=1;jettySize=auto;html=1;exitX=0.5;exitY=1;exitDx=0;exitDy=0;exitPerimeter=0;entryX=0.5;entryY=0;entryDx=0;entryDy=0;entryPerimeter=0;" parent="1" source="3zSDgM7Kw2t_0rP7uqXw-3" target="3zSDgM7Kw2t_0rP7uqXw-4" edge="1">
          <mxGeometry relative="1" as="geometry" />
        </mxCell>
        <mxCell id="yue49Qd1HGorT8xgrXCr-11" value="TIDAK" style="edgeLabel;html=1;align=center;verticalAlign=middle;resizable=0;points=[];" vertex="1" connectable="0" parent="3zSDgM7Kw2t_0rP7uqXw-8">
          <mxGeometry x="0.0042" y="3" relative="1" as="geometry">
            <mxPoint as="offset" />
          </mxGeometry>
        </mxCell>
        <mxCell id="3zSDgM7Kw2t_0rP7uqXw-16" style="edgeStyle=orthogonalEdgeStyle;rounded=0;orthogonalLoop=1;jettySize=auto;html=1;exitX=1;exitY=0.5;exitDx=0;exitDy=0;exitPerimeter=0;entryX=0;entryY=0.5;entryDx=0;entryDy=0;" parent="1" source="3zSDgM7Kw2t_0rP7uqXw-3" target="3zSDgM7Kw2t_0rP7uqXw-11" edge="1">
          <mxGeometry relative="1" as="geometry" />
        </mxCell>
        <mxCell id="yue49Qd1HGorT8xgrXCr-10" value="YA" style="edgeLabel;html=1;align=center;verticalAlign=middle;resizable=0;points=[];" vertex="1" connectable="0" parent="3zSDgM7Kw2t_0rP7uqXw-16">
          <mxGeometry x="-0.3048" y="10" relative="1" as="geometry">
            <mxPoint as="offset" />
          </mxGeometry>
        </mxCell>
        <mxCell id="oJVOibyozbH8kU2zN9hW-3" style="edgeStyle=orthogonalEdgeStyle;rounded=0;orthogonalLoop=1;jettySize=auto;html=1;exitX=0;exitY=0.5;exitDx=0;exitDy=0;exitPerimeter=0;entryX=0;entryY=0.5;entryDx=0;entryDy=0;" edge="1" parent="1" source="3zSDgM7Kw2t_0rP7uqXw-3" target="LEY4rxzhP1P3rRAMe_Mm-2">
          <mxGeometry relative="1" as="geometry">
            <Array as="points">
              <mxPoint x="590" y="2567" />
              <mxPoint x="590" y="1520" />
            </Array>
          </mxGeometry>
        </mxCell>
        <mxCell id="3zSDgM7Kw2t_0rP7uqXw-3" value="&lt;font style=&quot;font-size: 24px;&quot;&gt;PILIHAN 3&lt;/font&gt;" style="strokeWidth=2;html=1;shape=mxgraph.flowchart.decision;whiteSpace=wrap;" parent="1" vertex="1">
          <mxGeometry x="826.5" y="2480" width="200" height="174.5" as="geometry" />
        </mxCell>
        <mxCell id="3zSDgM7Kw2t_0rP7uqXw-17" style="edgeStyle=orthogonalEdgeStyle;rounded=0;orthogonalLoop=1;jettySize=auto;html=1;exitX=1;exitY=0.5;exitDx=0;exitDy=0;exitPerimeter=0;" parent="1" source="3zSDgM7Kw2t_0rP7uqXw-4" target="3zSDgM7Kw2t_0rP7uqXw-12" edge="1">
          <mxGeometry relative="1" as="geometry" />
        </mxCell>
        <mxCell id="yue49Qd1HGorT8xgrXCr-12" value="YA" style="edgeLabel;html=1;align=center;verticalAlign=middle;resizable=0;points=[];" vertex="1" connectable="0" parent="3zSDgM7Kw2t_0rP7uqXw-17">
          <mxGeometry x="-0.1932" y="1" relative="1" as="geometry">
            <mxPoint as="offset" />
          </mxGeometry>
        </mxCell>
        <mxCell id="oJVOibyozbH8kU2zN9hW-4" style="edgeStyle=orthogonalEdgeStyle;rounded=0;orthogonalLoop=1;jettySize=auto;html=1;exitX=0;exitY=0.5;exitDx=0;exitDy=0;exitPerimeter=0;entryX=0;entryY=0.25;entryDx=0;entryDy=0;" edge="1" parent="1" source="3zSDgM7Kw2t_0rP7uqXw-4" target="LEY4rxzhP1P3rRAMe_Mm-2">
          <mxGeometry relative="1" as="geometry">
            <Array as="points">
              <mxPoint x="510" y="2827" />
              <mxPoint x="510" y="1472" />
            </Array>
          </mxGeometry>
        </mxCell>
        <mxCell id="3zSDgM7Kw2t_0rP7uqXw-4" value="&lt;font style=&quot;font-size: 24px;&quot;&gt;PILIHAN 4&lt;/font&gt;" style="strokeWidth=2;html=1;shape=mxgraph.flowchart.decision;whiteSpace=wrap;" parent="1" vertex="1">
          <mxGeometry x="826.5" y="2740" width="200" height="174.5" as="geometry" />
        </mxCell>
        <mxCell id="3zSDgM7Kw2t_0rP7uqXw-7" style="edgeStyle=orthogonalEdgeStyle;rounded=0;orthogonalLoop=1;jettySize=auto;html=1;exitX=0.5;exitY=1;exitDx=0;exitDy=0;exitPerimeter=0;entryX=0.5;entryY=0;entryDx=0;entryDy=0;entryPerimeter=0;" parent="1" source="3zSDgM7Kw2t_0rP7uqXw-2" target="3zSDgM7Kw2t_0rP7uqXw-3" edge="1">
          <mxGeometry relative="1" as="geometry" />
        </mxCell>
        <mxCell id="yue49Qd1HGorT8xgrXCr-9" value="TIDAK" style="edgeLabel;html=1;align=center;verticalAlign=middle;resizable=0;points=[];" vertex="1" connectable="0" parent="3zSDgM7Kw2t_0rP7uqXw-7">
          <mxGeometry x="-0.0627" y="9" relative="1" as="geometry">
            <mxPoint as="offset" />
          </mxGeometry>
        </mxCell>
        <mxCell id="3zSDgM7Kw2t_0rP7uqXw-10" value="&lt;font style=&quot;font-size: 24px;&quot;&gt;lihatkoleksi&lt;/font&gt;" style="verticalLabelPosition=bottom;verticalAlign=top;html=1;shape=process;whiteSpace=wrap;rounded=1;size=0.14;arcSize=6;" parent="1" vertex="1">
          <mxGeometry x="1130" y="2257.25" width="140" height="100" as="geometry" />
        </mxCell>
        <mxCell id="3zSDgM7Kw2t_0rP7uqXw-11" value="&lt;font style=&quot;font-size: 24px;&quot;&gt;perbaruikoleksi&lt;/font&gt;" style="verticalLabelPosition=bottom;verticalAlign=top;html=1;shape=process;whiteSpace=wrap;rounded=1;size=0.14;arcSize=6;" parent="1" vertex="1">
          <mxGeometry x="1150" y="2517.25" width="140" height="100" as="geometry" />
        </mxCell>
        <mxCell id="3zSDgM7Kw2t_0rP7uqXw-12" value="&lt;font style=&quot;font-size: 24px;&quot;&gt;hapuskoleksi&lt;/font&gt;" style="verticalLabelPosition=bottom;verticalAlign=top;html=1;shape=process;whiteSpace=wrap;rounded=1;size=0.14;arcSize=6;" parent="1" vertex="1">
          <mxGeometry x="1140" y="2777.25" width="140" height="100" as="geometry" />
        </mxCell>
        <mxCell id="3zSDgM7Kw2t_0rP7uqXw-13" value="&lt;span style=&quot;font-size: 24px;&quot;&gt;tambahkoleksi&lt;/span&gt;" style="verticalLabelPosition=bottom;verticalAlign=top;html=1;shape=process;whiteSpace=wrap;rounded=1;size=0.14;arcSize=6;" parent="1" vertex="1">
          <mxGeometry x="1135" y="1997.25" width="140" height="100" as="geometry" />
        </mxCell>
        <mxCell id="yue49Qd1HGorT8xgrXCr-1" style="edgeStyle=orthogonalEdgeStyle;rounded=0;orthogonalLoop=1;jettySize=auto;html=1;exitX=0.5;exitY=1;exitDx=0;exitDy=0;entryX=0.5;entryY=0;entryDx=0;entryDy=0;entryPerimeter=0;" edge="1" parent="1" source="LEY4rxzhP1P3rRAMe_Mm-4" target="3zSDgM7Kw2t_0rP7uqXw-1">
          <mxGeometry relative="1" as="geometry" />
        </mxCell>
        <mxCell id="yue49Qd1HGorT8xgrXCr-3" style="edgeStyle=orthogonalEdgeStyle;rounded=0;orthogonalLoop=1;jettySize=auto;html=1;exitX=0.5;exitY=1;exitDx=0;exitDy=0;exitPerimeter=0;entryX=0.5;entryY=0;entryDx=0;entryDy=0;" edge="1" parent="1" source="yue49Qd1HGorT8xgrXCr-2" target="LEY4rxzhP1P3rRAMe_Mm-2">
          <mxGeometry relative="1" as="geometry" />
        </mxCell>
        <mxCell id="yue49Qd1HGorT8xgrXCr-2" value="&lt;font style=&quot;font-size: 36px;&quot;&gt;menukoleksi()&lt;/font&gt;" style="strokeWidth=2;html=1;shape=mxgraph.flowchart.start_1;whiteSpace=wrap;" vertex="1" parent="1">
          <mxGeometry x="811.5" y="1180" width="230" height="120" as="geometry" />
        </mxCell>
        <mxCell id="oJVOibyozbH8kU2zN9hW-6" style="edgeStyle=orthogonalEdgeStyle;rounded=0;orthogonalLoop=1;jettySize=auto;html=1;exitX=0.457;exitY=1.023;exitDx=0;exitDy=0;exitPerimeter=0;entryX=0.5;entryY=0;entryDx=0;entryDy=0;" edge="1" parent="1" source="MdFs4eNDpeBDNVgF0jbH-1" target="oJVOibyozbH8kU2zN9hW-5">
          <mxGeometry relative="1" as="geometry">
            <mxPoint x="916.5" y="3429.9999999999995" as="sourcePoint" />
          </mxGeometry>
        </mxCell>
        <mxCell id="MdFs4eNDpeBDNVgF0jbH-2" style="edgeStyle=orthogonalEdgeStyle;rounded=0;orthogonalLoop=1;jettySize=auto;html=1;exitX=0.5;exitY=1;exitDx=0;exitDy=0;exitPerimeter=0;entryX=0.5;entryY=0;entryDx=0;entryDy=0;" edge="1" parent="1" source="yue49Qd1HGorT8xgrXCr-4" target="MdFs4eNDpeBDNVgF0jbH-1">
          <mxGeometry relative="1" as="geometry" />
        </mxCell>
        <mxCell id="yue49Qd1HGorT8xgrXCr-4" value="&lt;font style=&quot;font-size: 24px;&quot;&gt;PILIHAN 5&lt;/font&gt;" style="strokeWidth=2;html=1;shape=mxgraph.flowchart.decision;whiteSpace=wrap;" vertex="1" parent="1">
          <mxGeometry x="826.5" y="3000" width="200" height="174.5" as="geometry" />
        </mxCell>
        <mxCell id="yue49Qd1HGorT8xgrXCr-5" style="edgeStyle=orthogonalEdgeStyle;rounded=0;orthogonalLoop=1;jettySize=auto;html=1;exitX=0.5;exitY=1;exitDx=0;exitDy=0;exitPerimeter=0;entryX=0.5;entryY=0;entryDx=0;entryDy=0;entryPerimeter=0;" edge="1" parent="1" source="3zSDgM7Kw2t_0rP7uqXw-4" target="yue49Qd1HGorT8xgrXCr-4">
          <mxGeometry relative="1" as="geometry" />
        </mxCell>
        <mxCell id="yue49Qd1HGorT8xgrXCr-13" value="TIDAK" style="edgeLabel;html=1;align=center;verticalAlign=middle;resizable=0;points=[];" vertex="1" connectable="0" parent="yue49Qd1HGorT8xgrXCr-5">
          <mxGeometry x="-0.1295" y="6" relative="1" as="geometry">
            <mxPoint as="offset" />
          </mxGeometry>
        </mxCell>
        <mxCell id="oJVOibyozbH8kU2zN9hW-5" value="&lt;span style=&quot;font-size: 36px;&quot;&gt;OUTPUT&lt;/span&gt;&lt;div&gt;&lt;span style=&quot;font-size: 36px;&quot;&gt;LOGOUT BERHASIL&lt;/span&gt;&lt;/div&gt;" style="shape=parallelogram;html=1;strokeWidth=2;perimeter=parallelogramPerimeter;whiteSpace=wrap;rounded=1;arcSize=12;size=0.23;" vertex="1" parent="1">
          <mxGeometry x="762" y="3450" width="313" height="135" as="geometry" />
        </mxCell>
        <mxCell id="oJVOibyozbH8kU2zN9hW-8" value="" style="endArrow=classic;html=1;rounded=0;" edge="1" parent="1">
          <mxGeometry width="50" height="50" relative="1" as="geometry">
            <mxPoint x="912" y="3570" as="sourcePoint" />
            <mxPoint x="1074" y="3570" as="targetPoint" />
          </mxGeometry>
        </mxCell>
        <mxCell id="oJVOibyozbH8kU2zN9hW-9" value="&lt;font style=&quot;font-size: 36px;&quot;&gt;END&lt;/font&gt;" style="strokeWidth=2;html=1;shape=mxgraph.flowchart.start_1;whiteSpace=wrap;" vertex="1" parent="1">
          <mxGeometry x="803.5" y="3670" width="230" height="120" as="geometry" />
        </mxCell>
        <mxCell id="oJVOibyozbH8kU2zN9hW-10" style="edgeStyle=orthogonalEdgeStyle;rounded=0;orthogonalLoop=1;jettySize=auto;html=1;exitX=0.5;exitY=1;exitDx=0;exitDy=0;entryX=0.5;entryY=0;entryDx=0;entryDy=0;entryPerimeter=0;" edge="1" parent="1" source="oJVOibyozbH8kU2zN9hW-5" target="oJVOibyozbH8kU2zN9hW-9">
          <mxGeometry relative="1" as="geometry" />
        </mxCell>
        <mxCell id="MdFs4eNDpeBDNVgF0jbH-1" value="&lt;font style=&quot;font-size: 24px;&quot;&gt;while pilihan!=5&lt;/font&gt;" style="rounded=1;whiteSpace=wrap;html=1;absoluteArcSize=1;arcSize=14;strokeWidth=2;" vertex="1" parent="1">
          <mxGeometry x="836.5" y="3240" width="180" height="130" as="geometry" />
        </mxCell>
      </root>
    </mxGraphModel>
  </diagram>
  <diagram id="1PRPthDu1jesKjCs8UZw" name="Tambah koleksi">
    <mxGraphModel dx="1277" dy="70" grid="1" gridSize="10" guides="1" tooltips="1" connect="1" arrows="1" fold="1" page="1" pageScale="1" pageWidth="850" pageHeight="1100" math="0" shadow="0">
      <root>
        <mxCell id="0" />
        <mxCell id="1" parent="0" />
        <mxCell id="szjKY7hVPHr-UKBHA5M0-1" style="edgeStyle=orthogonalEdgeStyle;rounded=0;orthogonalLoop=1;jettySize=auto;html=1;exitX=1;exitY=0.5;exitDx=0;exitDy=0;exitPerimeter=0;entryX=0;entryY=0.5;entryDx=0;entryDy=0;" parent="1" source="F65ua6cLvio98_NeWAMj-19" target="F65ua6cLvio98_NeWAMj-28" edge="1">
          <mxGeometry relative="1" as="geometry" />
        </mxCell>
        <mxCell id="F65ua6cLvio98_NeWAMj-19" value="&lt;font style=&quot;font-size: 24px;&quot;&gt;Jumlah&amp;lt;MAX&lt;/font&gt;" style="strokeWidth=2;html=1;shape=mxgraph.flowchart.decision;whiteSpace=wrap;" parent="1" vertex="1">
          <mxGeometry x="1328" y="1889" width="203" height="210" as="geometry" />
        </mxCell>
        <mxCell id="F65ua6cLvio98_NeWAMj-26" style="edgeStyle=orthogonalEdgeStyle;rounded=0;orthogonalLoop=1;jettySize=auto;html=1;exitX=0.5;exitY=1;exitDx=0;exitDy=0;entryX=0.5;entryY=0;entryDx=0;entryDy=0;exitPerimeter=0;" parent="1" source="F65ua6cLvio98_NeWAMj-19" target="F65ua6cLvio98_NeWAMj-25" edge="1">
          <mxGeometry relative="1" as="geometry">
            <mxPoint x="1430" y="2110" as="sourcePoint" />
          </mxGeometry>
        </mxCell>
        <mxCell id="TITcWV03Wzo4qeNsRSYN-2" style="edgeStyle=orthogonalEdgeStyle;rounded=0;orthogonalLoop=1;jettySize=auto;html=1;exitX=0.5;exitY=1;exitDx=0;exitDy=0;entryX=0.5;entryY=0;entryDx=0;entryDy=0;" parent="1" source="F65ua6cLvio98_NeWAMj-25" target="TITcWV03Wzo4qeNsRSYN-1" edge="1">
          <mxGeometry relative="1" as="geometry" />
        </mxCell>
        <mxCell id="F65ua6cLvio98_NeWAMj-25" value="&lt;font style=&quot;font-size: 18px;&quot;&gt;Input&lt;/font&gt;&lt;div&gt;&lt;font size=&quot;3&quot;&gt;koleksi[jumlah][0]&lt;/font&gt;&lt;/div&gt;&lt;div&gt;&lt;font size=&quot;3&quot;&gt;koleksi[jumlah][1]&lt;br&gt;&lt;/font&gt;&lt;/div&gt;&lt;div&gt;&lt;font size=&quot;3&quot;&gt;koleksi[jumlah][2]&lt;br&gt;&lt;/font&gt;&lt;/div&gt;&lt;div&gt;&lt;font size=&quot;3&quot;&gt;koleksi[jumlah][3]&lt;/font&gt;&lt;br&gt;&lt;/div&gt;" style="shape=parallelogram;html=1;strokeWidth=2;perimeter=parallelogramPerimeter;whiteSpace=wrap;rounded=1;arcSize=12;size=0.23;" parent="1" vertex="1">
          <mxGeometry x="1289.5" y="2200" width="280" height="150" as="geometry" />
        </mxCell>
        <mxCell id="F65ua6cLvio98_NeWAMj-27" value="" style="endArrow=classic;html=1;rounded=0;" parent="1" edge="1">
          <mxGeometry width="50" height="50" relative="1" as="geometry">
            <mxPoint x="1310.5" y="2240" as="sourcePoint" />
            <mxPoint x="1390.5" y="2240" as="targetPoint" />
          </mxGeometry>
        </mxCell>
        <mxCell id="F65ua6cLvio98_NeWAMj-28" value="&lt;font style=&quot;font-size: 18px;&quot;&gt;Output&lt;/font&gt;&lt;div&gt;&lt;span style=&quot;background-color: initial;&quot;&gt;&quot;&lt;font style=&quot;font-size: 18px;&quot;&gt;Koleksi sudah penuh&quot;&lt;/font&gt;&lt;/span&gt;&lt;br&gt;&lt;/div&gt;" style="shape=parallelogram;html=1;strokeWidth=2;perimeter=parallelogramPerimeter;whiteSpace=wrap;rounded=1;arcSize=12;size=0.23;" parent="1" vertex="1">
          <mxGeometry x="1670" y="1919" width="280" height="150" as="geometry" />
        </mxCell>
        <mxCell id="UqZUu8_CLKE0RUZHDsje-1" value="" style="endArrow=classic;html=1;rounded=0;" parent="1" edge="1">
          <mxGeometry width="50" height="50" relative="1" as="geometry">
            <mxPoint x="1860" y="2049" as="sourcePoint" />
            <mxPoint x="1940" y="2049" as="targetPoint" />
          </mxGeometry>
        </mxCell>
        <mxCell id="szjKY7hVPHr-UKBHA5M0-3" value="&lt;font style=&quot;font-size: 24px;&quot;&gt;tambahkoleksi()&lt;/font&gt;" style="strokeWidth=2;html=1;shape=mxgraph.flowchart.start_1;whiteSpace=wrap;" parent="1" vertex="1">
          <mxGeometry x="1340" y="1660" width="180" height="90" as="geometry" />
        </mxCell>
        <mxCell id="szjKY7hVPHr-UKBHA5M0-4" style="edgeStyle=orthogonalEdgeStyle;rounded=0;orthogonalLoop=1;jettySize=auto;html=1;exitX=0.5;exitY=1;exitDx=0;exitDy=0;exitPerimeter=0;entryX=0.5;entryY=0;entryDx=0;entryDy=0;entryPerimeter=0;" parent="1" source="szjKY7hVPHr-UKBHA5M0-3" target="F65ua6cLvio98_NeWAMj-19" edge="1">
          <mxGeometry relative="1" as="geometry" />
        </mxCell>
        <mxCell id="fekW0qOoNaJIskj0Kd0e-1" value="&lt;font style=&quot;font-size: 24px;&quot;&gt;END&lt;/font&gt;" style="strokeWidth=2;html=1;shape=mxgraph.flowchart.start_1;whiteSpace=wrap;" parent="1" vertex="1">
          <mxGeometry x="1379.5" y="2590" width="100" height="60" as="geometry" />
        </mxCell>
        <mxCell id="fekW0qOoNaJIskj0Kd0e-2" style="edgeStyle=orthogonalEdgeStyle;rounded=0;orthogonalLoop=1;jettySize=auto;html=1;exitX=1;exitY=0.75;exitDx=0;exitDy=0;entryX=1;entryY=0.5;entryDx=0;entryDy=0;entryPerimeter=0;" parent="1" source="F65ua6cLvio98_NeWAMj-28" target="fekW0qOoNaJIskj0Kd0e-1" edge="1">
          <mxGeometry relative="1" as="geometry">
            <Array as="points">
              <mxPoint x="2100" y="2020" />
              <mxPoint x="2100" y="2620" />
            </Array>
          </mxGeometry>
        </mxCell>
        <mxCell id="TITcWV03Wzo4qeNsRSYN-1" value="&lt;font style=&quot;font-size: 24px;&quot;&gt;jumlah++&lt;/font&gt;" style="rounded=1;whiteSpace=wrap;html=1;absoluteArcSize=1;arcSize=14;strokeWidth=2;" parent="1" vertex="1">
          <mxGeometry x="1354.5" y="2420" width="150" height="70" as="geometry" />
        </mxCell>
        <mxCell id="TITcWV03Wzo4qeNsRSYN-3" style="edgeStyle=orthogonalEdgeStyle;rounded=0;orthogonalLoop=1;jettySize=auto;html=1;exitX=0.5;exitY=1;exitDx=0;exitDy=0;entryX=0.5;entryY=0;entryDx=0;entryDy=0;entryPerimeter=0;" parent="1" source="TITcWV03Wzo4qeNsRSYN-1" target="fekW0qOoNaJIskj0Kd0e-1" edge="1">
          <mxGeometry relative="1" as="geometry" />
        </mxCell>
        <mxCell id="EW__2rdqUiS29GZNjfdO-1" style="edgeStyle=orthogonalEdgeStyle;rounded=0;orthogonalLoop=1;jettySize=auto;html=1;exitX=0;exitY=0.85;exitDx=0;exitDy=0;exitPerimeter=0;entryX=1;entryY=0.75;entryDx=0;entryDy=0;" edge="1" parent="1" source="TITcWV03Wzo4qeNsRSYN-4" target="TITcWV03Wzo4qeNsRSYN-1">
          <mxGeometry relative="1" as="geometry" />
        </mxCell>
        <mxCell id="TITcWV03Wzo4qeNsRSYN-4" value="&lt;font style=&quot;font-size: 36px;&quot;&gt;jumlah&lt;/font&gt;" style="strokeWidth=2;html=1;shape=mxgraph.flowchart.database;whiteSpace=wrap;" parent="1" vertex="1">
          <mxGeometry x="1610" y="2390" width="130" height="130" as="geometry" />
        </mxCell>
        <mxCell id="TITcWV03Wzo4qeNsRSYN-5" style="edgeStyle=orthogonalEdgeStyle;rounded=0;orthogonalLoop=1;jettySize=auto;html=1;exitX=1;exitY=0.5;exitDx=0;exitDy=0;entryX=0;entryY=0.5;entryDx=0;entryDy=0;entryPerimeter=0;" parent="1" source="TITcWV03Wzo4qeNsRSYN-1" target="TITcWV03Wzo4qeNsRSYN-4" edge="1">
          <mxGeometry relative="1" as="geometry" />
        </mxCell>
      </root>
    </mxGraphModel>
  </diagram>
  <diagram id="3JpyWW96aLqq560S_ALA" name="lihatkoleksi">
    <mxGraphModel dx="263" dy="-20" grid="1" gridSize="10" guides="1" tooltips="1" connect="1" arrows="1" fold="1" page="1" pageScale="1" pageWidth="850" pageHeight="1100" math="0" shadow="0">
      <root>
        <mxCell id="0" />
        <mxCell id="1" parent="0" />
        <mxCell id="Nh__Unba4CwxlWg-e47o-13" style="edgeStyle=orthogonalEdgeStyle;rounded=0;orthogonalLoop=1;jettySize=auto;html=1;exitX=0.5;exitY=1;exitDx=0;exitDy=0;exitPerimeter=0;entryX=0.5;entryY=0;entryDx=0;entryDy=0;" parent="1" source="Nh__Unba4CwxlWg-e47o-10" target="Nh__Unba4CwxlWg-e47o-12" edge="1">
          <mxGeometry relative="1" as="geometry" />
        </mxCell>
        <mxCell id="u8rwhSRDMo0g2aMNSRCy-2" value="Ya" style="edgeLabel;html=1;align=center;verticalAlign=middle;resizable=0;points=[];" parent="Nh__Unba4CwxlWg-e47o-13" vertex="1" connectable="0">
          <mxGeometry x="0.0841" y="6" relative="1" as="geometry">
            <mxPoint y="1" as="offset" />
          </mxGeometry>
        </mxCell>
        <mxCell id="EboOfSWFJo72sSRPT2em-1" style="edgeStyle=orthogonalEdgeStyle;rounded=0;orthogonalLoop=1;jettySize=auto;html=1;exitX=1;exitY=0.5;exitDx=0;exitDy=0;exitPerimeter=0;entryX=0;entryY=0.5;entryDx=0;entryDy=0;" parent="1" source="Nh__Unba4CwxlWg-e47o-10" target="Nh__Unba4CwxlWg-e47o-11" edge="1">
          <mxGeometry relative="1" as="geometry" />
        </mxCell>
        <mxCell id="EboOfSWFJo72sSRPT2em-2" value="Tidak" style="edgeLabel;html=1;align=center;verticalAlign=middle;resizable=0;points=[];" parent="EboOfSWFJo72sSRPT2em-1" vertex="1" connectable="0">
          <mxGeometry x="-0.004" y="2" relative="1" as="geometry">
            <mxPoint x="-1" as="offset" />
          </mxGeometry>
        </mxCell>
        <mxCell id="Nh__Unba4CwxlWg-e47o-10" value="&lt;font style=&quot;font-size: 24px;&quot;&gt;Jumlah==0&lt;/font&gt;" style="strokeWidth=2;html=1;shape=mxgraph.flowchart.decision;whiteSpace=wrap;" parent="1" vertex="1">
          <mxGeometry x="2098" y="1474.62" width="203" height="210" as="geometry" />
        </mxCell>
        <mxCell id="Nh__Unba4CwxlWg-e47o-11" value="&lt;font style=&quot;font-size: 24px;&quot;&gt;Output&lt;/font&gt;&lt;div&gt;&lt;font style=&quot;font-size: 18px;&quot;&gt;&lt;span style=&quot;background-color: initial;&quot;&gt;koleksi[jumlah].nama&lt;/span&gt;&lt;br&gt;&lt;/font&gt;&lt;/div&gt;&lt;div&gt;&lt;font style=&quot;font-size: 18px;&quot;&gt;koleksi[jumlah].asal&lt;br&gt;&lt;/font&gt;&lt;/div&gt;&lt;div&gt;&lt;font style=&quot;font-size: 18px;&quot;&gt;koleksi[jumlah].jenis&lt;br&gt;&lt;/font&gt;&lt;/div&gt;&lt;div&gt;&lt;font style=&quot;font-size: 18px;&quot;&gt;koleksi[jumlah].wktu.tahun&lt;/font&gt;&lt;/div&gt;" style="shape=parallelogram;html=1;strokeWidth=2;perimeter=parallelogramPerimeter;whiteSpace=wrap;rounded=1;arcSize=12;size=0.23;" parent="1" vertex="1">
          <mxGeometry x="2500" y="1496.9299999999998" width="330" height="165.38" as="geometry" />
        </mxCell>
        <mxCell id="Nh__Unba4CwxlWg-e47o-12" value="&lt;div&gt;&lt;font style=&quot;font-size: 18px;&quot;&gt;&quot;Koleksi masih kosong&quot;&lt;/font&gt;&lt;/div&gt;" style="shape=parallelogram;html=1;strokeWidth=2;perimeter=parallelogramPerimeter;whiteSpace=wrap;rounded=1;arcSize=12;size=0.23;" parent="1" vertex="1">
          <mxGeometry x="2059.5" y="1820" width="280" height="150" as="geometry" />
        </mxCell>
        <mxCell id="Jxw4TWqZyxXGJkv795bC-1" value="" style="endArrow=classic;html=1;rounded=0;" parent="1" edge="1">
          <mxGeometry width="50" height="50" relative="1" as="geometry">
            <mxPoint x="2251" y="1960" as="sourcePoint" />
            <mxPoint x="2350" y="1960" as="targetPoint" />
          </mxGeometry>
        </mxCell>
        <mxCell id="u8rwhSRDMo0g2aMNSRCy-1" value="" style="endArrow=classic;html=1;rounded=0;" parent="1" edge="1">
          <mxGeometry width="50" height="50" relative="1" as="geometry">
            <mxPoint x="2710" y="1640" as="sourcePoint" />
            <mxPoint x="2809" y="1640" as="targetPoint" />
          </mxGeometry>
        </mxCell>
        <mxCell id="rkZA0qUVoRUGVMhOBGYp-1" value="&lt;font style=&quot;font-size: 24px;&quot;&gt;lihatkoleksi()&lt;/font&gt;" style="strokeWidth=2;html=1;shape=mxgraph.flowchart.start_1;whiteSpace=wrap;" parent="1" vertex="1">
          <mxGeometry x="2130" y="1280" width="140" height="70" as="geometry" />
        </mxCell>
        <mxCell id="rkZA0qUVoRUGVMhOBGYp-2" style="edgeStyle=orthogonalEdgeStyle;rounded=0;orthogonalLoop=1;jettySize=auto;html=1;exitX=0.5;exitY=1;exitDx=0;exitDy=0;exitPerimeter=0;entryX=0.5;entryY=0;entryDx=0;entryDy=0;entryPerimeter=0;" parent="1" source="rkZA0qUVoRUGVMhOBGYp-1" target="Nh__Unba4CwxlWg-e47o-10" edge="1">
          <mxGeometry relative="1" as="geometry" />
        </mxCell>
        <mxCell id="sXxtgGQ921G5UIk_FcZA-1" value="&lt;font style=&quot;font-size: 24px;&quot;&gt;END&lt;/font&gt;" style="strokeWidth=2;html=1;shape=mxgraph.flowchart.start_1;whiteSpace=wrap;" parent="1" vertex="1">
          <mxGeometry x="2149.5" y="2060" width="100" height="60" as="geometry" />
        </mxCell>
        <mxCell id="sXxtgGQ921G5UIk_FcZA-2" style="edgeStyle=orthogonalEdgeStyle;rounded=0;orthogonalLoop=1;jettySize=auto;html=1;exitX=0.5;exitY=1;exitDx=0;exitDy=0;entryX=0.5;entryY=0;entryDx=0;entryDy=0;entryPerimeter=0;" parent="1" source="Nh__Unba4CwxlWg-e47o-12" target="sXxtgGQ921G5UIk_FcZA-1" edge="1">
          <mxGeometry relative="1" as="geometry" />
        </mxCell>
        <mxCell id="sXxtgGQ921G5UIk_FcZA-3" style="edgeStyle=orthogonalEdgeStyle;rounded=0;orthogonalLoop=1;jettySize=auto;html=1;exitX=0.5;exitY=1;exitDx=0;exitDy=0;entryX=1;entryY=0.5;entryDx=0;entryDy=0;entryPerimeter=0;" parent="1" source="Nh__Unba4CwxlWg-e47o-11" target="sXxtgGQ921G5UIk_FcZA-1" edge="1">
          <mxGeometry relative="1" as="geometry" />
        </mxCell>
        <mxCell id="NqD0LPuRw0gz8nc-9A7G-3" style="edgeStyle=orthogonalEdgeStyle;rounded=0;orthogonalLoop=1;jettySize=auto;html=1;exitX=0;exitY=0.85;exitDx=0;exitDy=0;exitPerimeter=0;entryX=1;entryY=1;entryDx=0;entryDy=0;" edge="1" parent="1" source="NqD0LPuRw0gz8nc-9A7G-1" target="Nh__Unba4CwxlWg-e47o-11">
          <mxGeometry relative="1" as="geometry" />
        </mxCell>
        <mxCell id="NqD0LPuRw0gz8nc-9A7G-1" value="&lt;font style=&quot;font-size: 36px;&quot;&gt;jumlah&lt;/font&gt;" style="strokeWidth=2;html=1;shape=mxgraph.flowchart.database;whiteSpace=wrap;" vertex="1" parent="1">
          <mxGeometry x="2910" y="1520.62" width="130" height="130" as="geometry" />
        </mxCell>
        <mxCell id="NqD0LPuRw0gz8nc-9A7G-2" style="edgeStyle=orthogonalEdgeStyle;rounded=0;orthogonalLoop=1;jettySize=auto;html=1;exitX=1;exitY=0.25;exitDx=0;exitDy=0;entryX=0;entryY=0.15;entryDx=0;entryDy=0;entryPerimeter=0;" edge="1" parent="1" source="Nh__Unba4CwxlWg-e47o-11" target="NqD0LPuRw0gz8nc-9A7G-1">
          <mxGeometry relative="1" as="geometry" />
        </mxCell>
      </root>
    </mxGraphModel>
  </diagram>
  <diagram id="AZU1hpfCFRj6FHDX39NN" name="perbaruikoleksi">
    <mxGraphModel dx="1276" dy="702" grid="1" gridSize="10" guides="1" tooltips="1" connect="1" arrows="1" fold="1" page="1" pageScale="1" pageWidth="850" pageHeight="1100" math="0" shadow="0">
      <root>
        <mxCell id="0" />
        <mxCell id="1" parent="0" />
        <mxCell id="hVLW184ocqa2bCyJeqY_-2" style="edgeStyle=orthogonalEdgeStyle;rounded=0;orthogonalLoop=1;jettySize=auto;html=1;exitX=0.5;exitY=1;exitDx=0;exitDy=0;exitPerimeter=0;entryX=0.5;entryY=0;entryDx=0;entryDy=0;" parent="1" source="jtmFhxTFRhgH92bUxdhf-1" target="hVLW184ocqa2bCyJeqY_-1" edge="1">
          <mxGeometry relative="1" as="geometry" />
        </mxCell>
        <mxCell id="jtmFhxTFRhgH92bUxdhf-1" value="&lt;font style=&quot;font-size: 24px;&quot;&gt;perbaruikoleksi()&lt;/font&gt;" style="strokeWidth=2;html=1;shape=mxgraph.flowchart.start_1;whiteSpace=wrap;" parent="1" vertex="1">
          <mxGeometry x="375" y="10" width="185" height="90" as="geometry" />
        </mxCell>
        <mxCell id="h6fDjA1ajHXxsg4qXy2L-3" style="edgeStyle=orthogonalEdgeStyle;rounded=0;orthogonalLoop=1;jettySize=auto;html=1;exitX=0.5;exitY=1;exitDx=0;exitDy=0;entryX=0.5;entryY=0;entryDx=0;entryDy=0;" parent="1" source="hVLW184ocqa2bCyJeqY_-1" target="h6fDjA1ajHXxsg4qXy2L-1" edge="1">
          <mxGeometry relative="1" as="geometry" />
        </mxCell>
        <mxCell id="hVLW184ocqa2bCyJeqY_-1" value="&lt;font style=&quot;font-size: 24px;&quot;&gt;lihatkoleksi()&lt;/font&gt;" style="verticalLabelPosition=bottom;verticalAlign=top;html=1;shape=process;whiteSpace=wrap;rounded=1;size=0.14;arcSize=6;" parent="1" vertex="1">
          <mxGeometry x="397.5" y="170" width="140" height="90" as="geometry" />
        </mxCell>
        <mxCell id="h6fDjA1ajHXxsg4qXy2L-5" style="edgeStyle=orthogonalEdgeStyle;rounded=0;orthogonalLoop=1;jettySize=auto;html=1;exitX=0.5;exitY=1;exitDx=0;exitDy=0;entryX=0.5;entryY=0;entryDx=0;entryDy=0;" parent="1" source="h6fDjA1ajHXxsg4qXy2L-1" target="h6fDjA1ajHXxsg4qXy2L-4" edge="1">
          <mxGeometry relative="1" as="geometry" />
        </mxCell>
        <mxCell id="h6fDjA1ajHXxsg4qXy2L-1" value="&lt;font style=&quot;font-size: 24px;&quot;&gt;Input&lt;/font&gt;&lt;div&gt;&lt;font style=&quot;font-size: 24px;&quot;&gt;koleksi[jumlah][0]&lt;/font&gt;&lt;/div&gt;&lt;div&gt;&lt;font style=&quot;font-size: 24px;&quot;&gt;koleksi[jumlah][1]&lt;br&gt;&lt;/font&gt;&lt;/div&gt;&lt;div&gt;&lt;font style=&quot;font-size: 24px;&quot;&gt;koleksi[jumlah][2]&lt;br&gt;&lt;/font&gt;&lt;/div&gt;&lt;div&gt;&lt;font style=&quot;font-size: 24px;&quot;&gt;koleksi[jumlah][3]&lt;/font&gt;&lt;br&gt;&lt;/div&gt;" style="shape=parallelogram;html=1;strokeWidth=2;perimeter=parallelogramPerimeter;whiteSpace=wrap;rounded=1;arcSize=12;size=0.23;" parent="1" vertex="1">
          <mxGeometry x="327.5" y="350" width="280" height="150" as="geometry" />
        </mxCell>
        <mxCell id="h6fDjA1ajHXxsg4qXy2L-2" value="" style="endArrow=classic;html=1;rounded=0;" parent="1" edge="1">
          <mxGeometry width="50" height="50" relative="1" as="geometry">
            <mxPoint x="348.5" y="370" as="sourcePoint" />
            <mxPoint x="428.5" y="370" as="targetPoint" />
          </mxGeometry>
        </mxCell>
        <mxCell id="h6fDjA1ajHXxsg4qXy2L-4" value="&lt;font style=&quot;font-size: 24px;&quot;&gt;perbarui data koleksi&lt;/font&gt;" style="rounded=1;whiteSpace=wrap;html=1;absoluteArcSize=1;arcSize=14;strokeWidth=2;" parent="1" vertex="1">
          <mxGeometry x="371" y="590" width="192.5" height="100" as="geometry" />
        </mxCell>
        <mxCell id="h6fDjA1ajHXxsg4qXy2L-6" value="&lt;font style=&quot;font-size: 24px;&quot;&gt;jumlah&lt;/font&gt;" style="strokeWidth=2;html=1;shape=mxgraph.flowchart.database;whiteSpace=wrap;" parent="1" vertex="1">
          <mxGeometry x="660" y="585" width="90" height="110" as="geometry" />
        </mxCell>
        <mxCell id="h6fDjA1ajHXxsg4qXy2L-7" style="edgeStyle=orthogonalEdgeStyle;rounded=0;orthogonalLoop=1;jettySize=auto;html=1;exitX=1;exitY=0.25;exitDx=0;exitDy=0;entryX=0;entryY=0.15;entryDx=0;entryDy=0;entryPerimeter=0;" parent="1" source="h6fDjA1ajHXxsg4qXy2L-4" target="h6fDjA1ajHXxsg4qXy2L-6" edge="1">
          <mxGeometry relative="1" as="geometry" />
        </mxCell>
        <mxCell id="h6fDjA1ajHXxsg4qXy2L-8" style="edgeStyle=orthogonalEdgeStyle;rounded=0;orthogonalLoop=1;jettySize=auto;html=1;exitX=1;exitY=0.75;exitDx=0;exitDy=0;entryX=0;entryY=0.85;entryDx=0;entryDy=0;entryPerimeter=0;" parent="1" source="h6fDjA1ajHXxsg4qXy2L-4" target="h6fDjA1ajHXxsg4qXy2L-6" edge="1">
          <mxGeometry relative="1" as="geometry" />
        </mxCell>
        <mxCell id="h6fDjA1ajHXxsg4qXy2L-9" value="&lt;font style=&quot;font-size: 24px;&quot;&gt;END&lt;/font&gt;" style="strokeWidth=2;html=1;shape=mxgraph.flowchart.start_1;whiteSpace=wrap;" parent="1" vertex="1">
          <mxGeometry x="375" y="750" width="185" height="90" as="geometry" />
        </mxCell>
        <mxCell id="h6fDjA1ajHXxsg4qXy2L-10" style="edgeStyle=orthogonalEdgeStyle;rounded=0;orthogonalLoop=1;jettySize=auto;html=1;exitX=0.5;exitY=1;exitDx=0;exitDy=0;entryX=0.5;entryY=0;entryDx=0;entryDy=0;entryPerimeter=0;" parent="1" source="h6fDjA1ajHXxsg4qXy2L-4" target="h6fDjA1ajHXxsg4qXy2L-9" edge="1">
          <mxGeometry relative="1" as="geometry" />
        </mxCell>
      </root>
    </mxGraphModel>
  </diagram>
  <diagram id="tT-LuMFFNUSpdwnDnreI" name="hapuskoleksi">
    <mxGraphModel dx="1501" dy="826" grid="1" gridSize="10" guides="1" tooltips="1" connect="1" arrows="1" fold="1" page="1" pageScale="1" pageWidth="850" pageHeight="1100" math="0" shadow="0">
      <root>
        <mxCell id="0" />
        <mxCell id="1" parent="0" />
        <mxCell id="HJwmsC-7AIa38gIC8ATh-3" style="edgeStyle=orthogonalEdgeStyle;rounded=0;orthogonalLoop=1;jettySize=auto;html=1;exitX=0.5;exitY=1;exitDx=0;exitDy=0;exitPerimeter=0;" parent="1" source="bhV0S_TQ2IhbEudc0sTj-1" target="HJwmsC-7AIa38gIC8ATh-1" edge="1">
          <mxGeometry relative="1" as="geometry" />
        </mxCell>
        <mxCell id="bhV0S_TQ2IhbEudc0sTj-1" value="&lt;font style=&quot;font-size: 24px;&quot;&gt;hapuskoleksi()&lt;/font&gt;" style="strokeWidth=2;html=1;shape=mxgraph.flowchart.start_1;whiteSpace=wrap;" parent="1" vertex="1">
          <mxGeometry x="350" y="40" width="150" height="90" as="geometry" />
        </mxCell>
        <mxCell id="ADMpdRhrSgnoxITa9jMx-2" style="edgeStyle=orthogonalEdgeStyle;rounded=0;orthogonalLoop=1;jettySize=auto;html=1;exitX=0.5;exitY=1;exitDx=0;exitDy=0;entryX=0.5;entryY=0;entryDx=0;entryDy=0;" parent="1" source="HJwmsC-7AIa38gIC8ATh-1" target="ADMpdRhrSgnoxITa9jMx-1" edge="1">
          <mxGeometry relative="1" as="geometry" />
        </mxCell>
        <mxCell id="HJwmsC-7AIa38gIC8ATh-1" value="&lt;span style=&quot;font-size: 24px;&quot;&gt;Input&lt;/span&gt;&lt;div&gt;&lt;span style=&quot;font-size: 24px;&quot;&gt;jumlah[]&lt;/span&gt;&lt;/div&gt;" style="shape=parallelogram;html=1;strokeWidth=2;perimeter=parallelogramPerimeter;whiteSpace=wrap;rounded=1;arcSize=12;size=0.23;" parent="1" vertex="1">
          <mxGeometry x="310" y="230" width="230" height="120" as="geometry" />
        </mxCell>
        <mxCell id="HJwmsC-7AIa38gIC8ATh-2" value="" style="endArrow=classic;html=1;rounded=0;" parent="1" edge="1">
          <mxGeometry width="50" height="50" relative="1" as="geometry">
            <mxPoint x="300" y="250" as="sourcePoint" />
            <mxPoint x="399" y="250" as="targetPoint" />
          </mxGeometry>
        </mxCell>
        <mxCell id="ADMpdRhrSgnoxITa9jMx-1" value="&lt;font style=&quot;font-size: 24px;&quot;&gt;hapus data koleksi&lt;/font&gt;" style="rounded=1;whiteSpace=wrap;html=1;absoluteArcSize=1;arcSize=14;strokeWidth=2;" parent="1" vertex="1">
          <mxGeometry x="328" y="450" width="192.5" height="100" as="geometry" />
        </mxCell>
        <mxCell id="dNcHa_ds1jCOUZmOdh1h-1" value="&lt;font style=&quot;font-size: 24px;&quot;&gt;jumlah&lt;/font&gt;" style="strokeWidth=2;html=1;shape=mxgraph.flowchart.database;whiteSpace=wrap;" parent="1" vertex="1">
          <mxGeometry x="610" y="440" width="90" height="110" as="geometry" />
        </mxCell>
        <mxCell id="dNcHa_ds1jCOUZmOdh1h-2" style="edgeStyle=orthogonalEdgeStyle;rounded=0;orthogonalLoop=1;jettySize=auto;html=1;exitX=1;exitY=0.25;exitDx=0;exitDy=0;entryX=0;entryY=0.15;entryDx=0;entryDy=0;entryPerimeter=0;" parent="1" source="ADMpdRhrSgnoxITa9jMx-1" target="dNcHa_ds1jCOUZmOdh1h-1" edge="1">
          <mxGeometry relative="1" as="geometry" />
        </mxCell>
        <mxCell id="dNcHa_ds1jCOUZmOdh1h-3" style="edgeStyle=orthogonalEdgeStyle;rounded=0;orthogonalLoop=1;jettySize=auto;html=1;exitX=1;exitY=0.75;exitDx=0;exitDy=0;entryX=0;entryY=0.85;entryDx=0;entryDy=0;entryPerimeter=0;" parent="1" source="ADMpdRhrSgnoxITa9jMx-1" target="dNcHa_ds1jCOUZmOdh1h-1" edge="1">
          <mxGeometry relative="1" as="geometry" />
        </mxCell>
        <mxCell id="O38KTVyUkemg6D3r3q5t-1" value="&lt;span style=&quot;font-size: 24px;&quot;&gt;END&lt;/span&gt;" style="strokeWidth=2;html=1;shape=mxgraph.flowchart.start_1;whiteSpace=wrap;" parent="1" vertex="1">
          <mxGeometry x="350" y="610" width="150" height="90" as="geometry" />
        </mxCell>
        <mxCell id="O38KTVyUkemg6D3r3q5t-2" style="edgeStyle=orthogonalEdgeStyle;rounded=0;orthogonalLoop=1;jettySize=auto;html=1;exitX=0.5;exitY=1;exitDx=0;exitDy=0;entryX=0.5;entryY=0;entryDx=0;entryDy=0;entryPerimeter=0;" parent="1" source="ADMpdRhrSgnoxITa9jMx-1" target="O38KTVyUkemg6D3r3q5t-1" edge="1">
          <mxGeometry relative="1" as="geometry" />
        </mxCell>
      </root>
    </mxGraphModel>
  </diagram>
</mxfile>
